<?xml version="1.0" encoding="utf-8"?>
<!-- Generator: Adobe Illustrator 23.0.1, SVG Export Plug-In . SVG Version: 6.00 Build 0)  -->
<svg version="1.1" id="Layer_1" xmlns="http://www.w3.org/2000/svg" xmlns:xlink="http://www.w3.org/1999/xlink" x="0px" y="0px"
	 viewBox="0 0 192 108" style="enable-background:new 0 0 192 108;" xml:space="preserve">
<g>
	<path d="M25.36,46.1c0,1.38,0,3.44,0,6.18c0,0.43-0.15,0.8-0.44,1.11c-0.31,0.29-0.67,0.44-1.09,0.44c-1.03,0-2.58,0-4.65,0
		c0,1.37,0,3.43,0,6.18c-0.68,0-1.71,0-3.08,0c0-0.68,0-1.54,0-2.57c0-1.02,0-2.22,0-3.6c0-0.68,0-1.71,0-3.08c0-0.7,0-1.73,0-3.1
		c0-0.68,0-1.71,0-3.08c0.68,0,1.71,0,3.08,0c1.03,0,2.58,0,4.65,0c0.42,0,0.78,0.15,1.09,0.44C25.21,45.32,25.36,45.68,25.36,46.1z
		 M19.18,50.75c0.7,0,1.73,0,3.1,0c0-0.13,0-0.31,0-0.54c0-0.57,0-1.42,0-2.55c-0.68,0-1.72,0-3.1,0
		C19.18,48.33,19.18,49.37,19.18,50.75z"/>
	<path d="M35.99,56.92c0,1.54,0,2.56,0,3.08c-3.08,0-5.14,0-6.17,0c-1.14,0-1.91,0-2.3,0s-0.65,0-0.77,0c0-3.87,0-7.08,0-9.65
		c0-2.57,0-4.49,0-5.78c1.55,0,2.57,0,3.08,0c0,6.17,0,10.29,0,12.35C32.57,56.92,34.62,56.92,35.99,56.92z"/>
	<path d="M46.63,60c-0.68,0-1.71,0-3.08,0c0-1.37,0-3.43,0-6.18c-0.68,0-1.72,0-3.1,0c0,1.37,0,3.43,0,6.18c-0.68,0-1.71,0-3.08,0
		c0-1.16,0-2.9,0-5.23c0-0.96,0-2.16,0-3.6c0-1.45,0-3.14,0-5.07c0-0.42,0.15-0.78,0.46-1.09c0.29-0.29,0.66-0.44,1.09-0.44
		c1.37,0,3.43,0,6.17,0c0.42,0,0.78,0.15,1.09,0.44c0.29,0.31,0.44,0.67,0.44,1.09C46.63,49.2,46.63,53.83,46.63,60z M43.55,50.75
		c0-0.13,0-0.31,0-0.54c0-0.57,0-1.42,0-2.55c-0.68,0-1.72,0-3.1,0c0,0.68,0,1.72,0,3.1C41.15,50.75,42.18,50.75,43.55,50.75z"/>
	<path d="M59.15,44.57c-1.88,3.77-3.29,6.59-4.23,8.48c0,3.47,0,5.79,0,6.95c-1.55,0-2.58,0-3.1,0c0-3.47,0-5.79,0-6.95
		c-2.12-4.24-3.53-7.07-4.23-8.48c1.73,0,2.88,0,3.45,0c1.16,2.5,1.93,4.17,2.32,5c1.16-2.5,1.93-4.17,2.32-5
		C57.23,44.57,58.38,44.57,59.15,44.57z"/>
	<path d="M63.17,47.65c0,1.37,0,2.4,0,3.1c2.07,0,3.61,0,4.65,0c0,1.37,0,2.39,0,3.08c-2.07,0-3.61,0-4.65,0c0,1.37,0,2.4,0,3.1
		c2.75,0,4.81,0,6.17,0c0,1.37,0,2.39,0,3.08c-2.73,0-4.79,0-6.17,0c-1.37,0-2.39,0-3.08,0c0-0.68,0-1.28,0-1.8
		c0-0.52,0-0.94,0-1.28c0-1.55,0-2.58,0-3.1c0-1.55,0-2.57,0-3.08c0-1.55,0-2.58,0-3.1c0-1.54,0-2.56,0-3.08c1.55,0,2.58,0,3.08,0
		c3.1,0,5.16,0,6.17,0c0,1.54,0,2.56,0,3.08C66.61,47.65,64.55,47.65,63.17,47.65z"/>
	<path d="M78.45,52.28c0.42,0,0.78,0.15,1.09,0.46c0.29,0.29,0.44,0.66,0.44,1.09c0,1.37,0,3.43,0,6.18c-0.68,0-1.71,0-3.08,0
		c0-1.37,0-3.43,0-6.18c-0.68,0-1.72,0-3.1,0c0,1.37,0,3.43,0,6.18c-0.68,0-1.71,0-3.08,0c0-1.37,0-3.43,0-6.18
		c0-0.68,0-1.71,0-3.08c0-0.68,0-1.54,0-2.57c0-1.03,0-2.23,0-3.6c0.68,0,1.71,0,3.08,0c1.03,0,2.58,0,4.65,0
		c0.42,0,0.78,0.15,1.09,0.44c0.29,0.31,0.44,0.67,0.44,1.09c0,1.03,0,2.58,0,4.65c0,0.42-0.15,0.78-0.44,1.09
		C79.23,52.13,78.87,52.28,78.45,52.28z M76.9,50.75c0-0.13,0-0.31,0-0.54c0-0.57,0-1.42,0-2.55c-0.68,0-1.72,0-3.1,0
		c0,0.68,0,1.72,0,3.1C74.5,50.75,75.53,50.75,76.9,50.75z"/>
	<path d="M101.25,46.1c0,2.75,0,6.87,0,12.35c0,0.43-0.15,0.8-0.44,1.09c-0.31,0.31-0.67,0.46-1.09,0.46c-1.38,0-3.44,0-6.17,0
		c-0.43,0-0.8-0.15-1.09-0.46C92.15,59.25,92,58.88,92,58.45c0-1.03,0-2.58,0-4.65c0-0.85,0-1.91,0-3.18c0-1.3,0-2.81,0-4.52
		c0-0.42,0.15-0.78,0.46-1.09c0.29-0.29,0.66-0.44,1.09-0.44c1.37,0,3.43,0,6.17,0c0.42,0,0.78,0.15,1.09,0.44
		C101.1,45.32,101.25,45.68,101.25,46.1z M95.07,56.92c0.7,0,1.73,0,3.1,0c0-0.14,0-0.34,0-0.61c0-1.93,0-4.81,0-8.67
		c-0.68,0-1.72,0-3.1,0c0,1.03,0,2.57,0,4.63C95.07,53.31,95.07,54.86,95.07,56.92z"/>
	<path d="M111.88,46.1c0,3.1,0,7.73,0,13.9c-0.68,0-1.71,0-3.08,0c0-2.75,0-6.87,0-12.35c-0.68,0-1.72,0-3.1,0
		c0,2.75,0,6.87,0,12.35c-0.68,0-1.71,0-3.08,0c0-1.72,0-3.86,0-6.43s0-5.57,0-9c0.68,0,1.71,0,3.08,0c1.03,0,2.58,0,4.65,0
		c0.42,0,0.78,0.15,1.09,0.44C111.74,45.32,111.88,45.68,111.88,46.1z"/>
	<path d="M116.34,47.65c0,1.37,0,2.4,0,3.1c2.07,0,3.61,0,4.65,0c0,1.37,0,2.39,0,3.08c-2.07,0-3.61,0-4.65,0c0,1.37,0,2.4,0,3.1
		c2.75,0,4.81,0,6.18,0c0,1.37,0,2.39,0,3.08c-2.74,0-4.79,0-6.18,0c-1.37,0-2.39,0-3.08,0c0-1.37,0-2.39,0-3.08c0-0.7,0-1.3,0-1.82
		c0-0.52,0-0.94,0-1.28c0-1.55,0-2.57,0-3.08c0-1.55,0-2.58,0-3.1c0-1.54,0-2.56,0-3.08c1.55,0,2.57,0,3.08,0c3.1,0,5.16,0,6.18,0
		c0,1.54,0,2.56,0,3.08C119.78,47.65,117.73,47.65,116.34,47.65z"/>
	<path d="M134.54,58.45c0-1.54,0-3.46,0-5.78c0-2.32,0-5.02,0-8.1c0.68,0,1.71,0,3.08,0c0,2.74,0,6.85,0,12.35c0.7,0,1.73,0,3.1,0
		c0-2.75,0-6.87,0-12.35c0.68,0,1.71,0,3.08,0c0,2.74,0,6.85,0,12.35c0.7,0,1.73,0,3.1,0c0-2.75,0-6.87,0-12.35
		c0.68,0,1.71,0,3.08,0c0,3.08,0,7.71,0,13.88c0,0.43-0.15,0.8-0.44,1.09c-0.31,0.31-0.67,0.46-1.09,0.46c-1.03,0-2.58,0-4.65,0
		c-0.42,0-0.78-0.15-1.09-0.46c-0.29-0.29-0.44-0.66-0.44-1.09c0,0.43-0.15,0.8-0.46,1.09c-0.29,0.31-0.66,0.46-1.09,0.46
		c-1.03,0-2.57,0-4.63,0c-0.43,0-0.8-0.15-1.09-0.46C134.69,59.25,134.54,58.88,134.54,58.45z"/>
	<path d="M151.35,44.57c0.52,0,1.54,0,3.08,0c0,1.93,0,5.78,0,11.58c0,0.64,0,1.93,0,3.85c-0.5,0-1.53,0-3.08,0
		c0-1.72,0-3.86,0-6.43S151.35,48.01,151.35,44.57z"/>
	<path d="M165.06,46.1c0,3.1,0,7.73,0,13.9c-0.68,0-1.71,0-3.08,0c0-2.75,0-6.87,0-12.35c-0.68,0-1.72,0-3.1,0
		c0,2.75,0,6.87,0,12.35c-0.68,0-1.71,0-3.08,0c0-1.72,0-3.86,0-6.43s0-5.57,0-9c0.68,0,1.71,0,3.08,0c1.03,0,2.58,0,4.65,0
		c0.42,0,0.78,0.15,1.09,0.44C164.91,45.32,165.06,45.68,165.06,46.1z"/>
	<path d="M172.62,49.2c0-0.35,0-0.87,0-1.55c-0.68,0-1.72,0-3.1,0c0,0.68,0,1.72,0,3.1c1.03,0,2.58,0,4.65,0
		c0.42,0,0.78,0.15,1.09,0.44c0.29,0.31,0.44,0.67,0.44,1.09c0,1.38,0,3.44,0,6.18c0,0.43-0.15,0.8-0.44,1.09
		c-0.31,0.31-0.67,0.46-1.09,0.46c-1.38,0-3.44,0-6.17,0c-0.43,0-0.8-0.15-1.09-0.46c-0.31-0.29-0.46-0.66-0.46-1.09
		c0-0.68,0-1.71,0-3.08c0.68,0,1.71,0,3.08,0c0,0.34,0,0.85,0,1.55c0.7,0,1.73,0,3.1,0c0-0.7,0-1.73,0-3.1c-1.03,0-2.57,0-4.63,0
		c-0.43,0-0.8-0.15-1.09-0.44c-0.31-0.31-0.46-0.68-0.46-1.11c0-0.68,0-1.54,0-2.57c0-1.03,0-2.23,0-3.6c0-0.42,0.15-0.78,0.46-1.09
		c0.29-0.29,0.66-0.44,1.09-0.44c1.37,0,3.43,0,6.17,0c0.42,0,0.78,0.15,1.09,0.44c0.29,0.31,0.44,0.67,0.44,1.09
		c0,0.7,0,1.73,0,3.1C175.01,49.2,173.99,49.2,172.62,49.2z"/>
</g>
</svg>
