<?xml version="1.0" encoding="utf-8"?>
<!-- Generator: Adobe Illustrator 23.0.1, SVG Export Plug-In . SVG Version: 6.00 Build 0)  -->
<svg version="1.1" id="Layer_1" xmlns="http://www.w3.org/2000/svg" xmlns:xlink="http://www.w3.org/1999/xlink" x="0px" y="0px"
	 viewBox="0 0 192 108" style="enable-background:new 0 0 192 108;" xml:space="preserve">
<style type="text/css">
	.st0{fill:#1BAFDE;}
	.st1{fill:#FFFFFF;}
	.st2{opacity:0.35;}
	.st3{opacity:0.3;}
</style>
<g>
	<g>
		<rect x="9.51" y="15.67" class="st0" width="174.47" height="76.15"/>
		<path class="st1" d="M186,93.84H7.5V13.66H186V93.84z M11.53,89.81h170.44V17.69H11.53V89.81z"/>
	</g>
	<g class="st2">
		<rect x="11.88" y="85.55" width="169.75" height="4.18"/>
	</g>
	<g class="st2">
		<rect x="11.24" y="17.76" class="st1" width="170.38" height="4.18"/>
	</g>
</g>
<g class="st3">
	<rect x="84.86" y="30.58" width="21.76" height="5.64"/>
</g>
<g class="st3">
	<rect x="61.49" y="51.53" transform="matrix(-1.836970e-16 1 -1 -1.836970e-16 129.1445 -20.4357)" width="26.59" height="5.64"/>
</g>
<g>
	<polygon class="st1" points="77.43,41.32 84.57,41.32 84.57,35.89 106.97,35.89 106.97,41.89 115.38,41.89 115.38,67.51 
		107.54,67.51 107.54,73.5 84.8,73.5 84.8,67.75 77.43,67.75 	"/>
</g>
<g class="st3">
	<rect x="84.86" y="72.49" class="st1" width="22.56" height="5.64"/>
</g>
<g class="st3">
	
		<rect x="105.41" y="51.94" transform="matrix(6.123234e-17 -1 1 6.123234e-17 63.5497 173.0643)" class="st1" width="25.79" height="5.64"/>
</g>
</svg>
