<?xml version="1.0" encoding="utf-8"?>
<!-- Generator: Adobe Illustrator 23.0.1, SVG Export Plug-In . SVG Version: 6.00 Build 0)  -->
<svg version="1.1" id="Layer_1" xmlns="http://www.w3.org/2000/svg" xmlns:xlink="http://www.w3.org/1999/xlink" x="0px" y="0px"
	 viewBox="0 0 192 108" style="enable-background:new 0 0 192 108;" xml:space="preserve">
<style type="text/css">
	.st0{fill:#FFFFFF;}
	.st1{opacity:0.35;}
</style>
<g>
	<g>
		<rect x="13.5" y="20.5" class="st0" width="167.69" height="67.5"/>
		<path d="M183.69,90.5H11V18h172.69V90.5z M16,85.5h162.69V23H16V85.5z"/>
	</g>
	<g>
		<path d="M36.77,35.28c0,1.56,0,3.88,0,6.97c0,0.49-0.17,0.91-0.5,1.25c-0.35,0.33-0.76,0.5-1.23,0.5c-1.17,0-2.92,0-5.25,0
			c0,1.54,0,3.87,0,6.97c-0.77,0-1.93,0-3.47,0c0-0.77,0-1.74,0-2.91c0-1.15,0-2.5,0-4.07c0-0.77,0-1.93,0-3.47c0-0.79,0-1.95,0-3.5
			c0-0.77,0-1.93,0-3.48c0.77,0,1.93,0,3.47,0c1.17,0,2.92,0,5.25,0c0.47,0,0.88,0.17,1.23,0.5C36.6,34.4,36.77,34.81,36.77,35.28z
			 M29.79,40.53c0.79,0,1.95,0,3.5,0c0-0.14,0-0.35,0-0.61c0-0.65,0-1.61,0-2.88c-0.77,0-1.94,0-3.5,0
			C29.79,37.81,29.79,38.97,29.79,40.53z"/>
		<path d="M49.26,47.51c0,1.73,0,2.89,0,3.47c-3.48,0-5.81,0-6.97,0c-1.29,0-2.16,0-2.6,0s-0.73,0-0.88,0c0-4.37,0-8,0-10.9
			c0-2.9,0-5.07,0-6.52c1.75,0,2.91,0,3.48,0c0,6.97,0,11.61,0,13.95C45.39,47.51,47.72,47.51,49.26,47.51z"/>
		<path d="M61.76,50.98c-0.77,0-1.93,0-3.47,0c0-1.54,0-3.87,0-6.97c-0.77,0-1.94,0-3.5,0c0,1.54,0,3.87,0,6.97
			c-0.77,0-1.93,0-3.48,0c0-1.31,0-3.28,0-5.91c0-1.09,0-2.44,0-4.07c0-1.64,0-3.55,0-5.72c0-0.47,0.17-0.88,0.52-1.23
			c0.33-0.33,0.74-0.5,1.23-0.5c1.54,0,3.87,0,6.97,0c0.47,0,0.88,0.17,1.23,0.5c0.33,0.35,0.5,0.76,0.5,1.23
			C61.76,38.78,61.76,44.02,61.76,50.98z M58.28,40.53c0-0.14,0-0.35,0-0.61c0-0.65,0-1.61,0-2.88c-0.77,0-1.94,0-3.5,0
			c0,0.77,0,1.94,0,3.5C55.57,40.53,56.74,40.53,58.28,40.53z"/>
		<path d="M76.38,33.56c-2.13,4.25-3.72,7.45-4.77,9.57c0,3.92,0,6.54,0,7.85c-1.75,0-2.92,0-3.5,0c0-3.92,0-6.54,0-7.85
			c-2.4-4.79-3.99-7.98-4.77-9.57c1.95,0,3.25,0,3.9,0c1.31,2.82,2.18,4.7,2.62,5.65c1.31-2.82,2.18-4.7,2.62-5.65
			C74.21,33.56,75.51,33.56,76.38,33.56z"/>
		<path d="M81.4,37.03c0,1.54,0,2.71,0,3.5c2.33,0,4.08,0,5.25,0c0,1.54,0,2.7,0,3.47c-2.33,0-4.08,0-5.25,0c0,1.54,0,2.71,0,3.5
			c3.11,0,5.43,0,6.97,0c0,1.54,0,2.7,0,3.47c-3.09,0-5.41,0-6.97,0c-1.54,0-2.7,0-3.47,0c0-0.77,0-1.45,0-2.03
			c0-0.58,0-1.06,0-1.44c0-1.75,0-2.92,0-3.5c0-1.75,0-2.91,0-3.47c0-1.75,0-2.92,0-3.5c0-1.73,0-2.89,0-3.48c1.75,0,2.91,0,3.47,0
			c3.5,0,5.82,0,6.97,0c0,1.73,0,2.89,0,3.48C85.29,37.03,82.96,37.03,81.4,37.03z"/>
		<path d="M99.14,42.26c0.47,0,0.88,0.17,1.23,0.52c0.33,0.33,0.5,0.74,0.5,1.23c0,1.54,0,3.87,0,6.97c-0.77,0-1.93,0-3.47,0
			c0-1.54,0-3.87,0-6.97c-0.77,0-1.94,0-3.5,0c0,1.54,0,3.87,0,6.97c-0.77,0-1.93,0-3.48,0c0-1.54,0-3.87,0-6.97
			c0-0.77,0-1.93,0-3.47c0-0.77,0-1.74,0-2.91c0-1.17,0-2.52,0-4.07c0.77,0,1.93,0,3.48,0c1.17,0,2.92,0,5.25,0
			c0.47,0,0.88,0.17,1.23,0.5c0.33,0.35,0.5,0.76,0.5,1.23c0,1.17,0,2.92,0,5.25c0,0.47-0.17,0.88-0.5,1.23
			C100.03,42.09,99.62,42.26,99.14,42.26z M97.4,40.53c0-0.14,0-0.35,0-0.61c0-0.65,0-1.61,0-2.88c-0.77,0-1.94,0-3.5,0
			c0,0.77,0,1.94,0,3.5C94.69,40.53,95.85,40.53,97.4,40.53z"/>
		<path d="M125.86,35.28c0,3.1,0,7.75,0,13.95c0,0.49-0.17,0.9-0.5,1.23c-0.35,0.35-0.76,0.52-1.23,0.52c-1.56,0-3.88,0-6.97,0
			c-0.49,0-0.9-0.17-1.23-0.52c-0.35-0.33-0.52-0.74-0.52-1.23c0-1.17,0-2.91,0-5.25c0-0.96,0-2.16,0-3.59c0-1.47,0-3.17,0-5.11
			c0-0.47,0.17-0.88,0.52-1.23c0.33-0.33,0.74-0.5,1.23-0.5c1.54,0,3.87,0,6.97,0c0.47,0,0.88,0.17,1.23,0.5
			C125.7,34.4,125.86,34.81,125.86,35.28z M118.89,47.51c0.79,0,1.95,0,3.5,0c0-0.16,0-0.39,0-0.69c0-2.17,0-5.44,0-9.79
			c-0.77,0-1.94,0-3.5,0c0,1.17,0,2.91,0,5.22C118.89,43.42,118.89,45.17,118.89,47.51z"/>
		<path d="M138.35,35.28c0,3.5,0,8.73,0,15.7c-0.77,0-1.93,0-3.47,0c0-3.1,0-7.75,0-13.95c-0.77,0-1.94,0-3.5,0
			c0,3.1,0,7.75,0,13.95c-0.77,0-1.93,0-3.47,0c0-1.94,0-4.36,0-7.26c0-2.9,0-6.29,0-10.16c0.77,0,1.93,0,3.47,0
			c1.17,0,2.92,0,5.25,0c0.47,0,0.88,0.17,1.23,0.5C138.19,34.4,138.35,34.81,138.35,35.28z"/>
		<path d="M143.88,37.03c0,1.54,0,2.71,0,3.5c2.33,0,4.08,0,5.25,0c0,1.54,0,2.7,0,3.47c-2.33,0-4.08,0-5.25,0c0,1.54,0,2.71,0,3.5
			c3.1,0,5.43,0,6.97,0c0,1.54,0,2.7,0,3.47c-3.09,0-5.41,0-6.97,0c-1.54,0-2.7,0-3.47,0c0-0.77,0-1.45,0-2.03c0-0.58,0-1.06,0-1.44
			c0-1.75,0-2.92,0-3.5c0-1.75,0-2.91,0-3.47c0-1.75,0-2.92,0-3.5c0-1.73,0-2.89,0-3.48c1.75,0,2.91,0,3.47,0c3.5,0,5.82,0,6.97,0
			c0,1.73,0,2.89,0,3.48C147.76,37.03,145.44,37.03,143.88,37.03z"/>
		<path d="M156.37,33.56c0,0.77,0,1.35,0,1.73c0,0.79,0,1.37,0,1.75c-1.73,1.75-2.89,2.92-3.47,3.5c0-1.09,0-1.82,0-2.2
			c0.76-0.65,1.25-1.08,1.49-1.3c-0.74,0-1.24,0-1.49,0c0-0.87,0-1.59,0-2.17s0-1.02,0-1.3C154.44,33.56,155.6,33.56,156.37,33.56z"
			/>
		<path d="M165.39,38.78c0-0.39,0-0.98,0-1.75c-0.77,0-1.94,0-3.5,0c0,0.77,0,1.94,0,3.5c1.17,0,2.92,0,5.25,0
			c0.47,0,0.88,0.17,1.23,0.5c0.33,0.35,0.5,0.76,0.5,1.23c0,1.56,0,3.88,0,6.97c0,0.49-0.17,0.9-0.5,1.23
			c-0.35,0.35-0.76,0.52-1.23,0.52c-1.56,0-3.88,0-6.97,0c-0.49,0-0.9-0.17-1.23-0.52c-0.35-0.33-0.52-0.74-0.52-1.23
			c0-0.77,0-1.93,0-3.47c0.77,0,1.93,0,3.47,0c0,0.38,0,0.96,0,1.75c0.79,0,1.95,0,3.5,0c0-0.79,0-1.95,0-3.5c-1.17,0-2.91,0-5.22,0
			c-0.49,0-0.9-0.17-1.23-0.5c-0.35-0.35-0.52-0.76-0.52-1.25c0-0.77,0-1.74,0-2.91c0-1.17,0-2.52,0-4.07
			c0-0.47,0.17-0.88,0.52-1.23c0.33-0.33,0.74-0.5,1.23-0.5c1.54,0,3.87,0,6.97,0c0.47,0,0.88,0.17,1.23,0.5
			c0.33,0.35,0.5,0.76,0.5,1.23c0,0.79,0,1.95,0,3.5C168.09,38.78,166.93,38.78,165.39,38.78z"/>
		<path d="M84.07,60.81c-1.73,0-2.89,0-3.47,0c0,6.98,0,11.63,0,13.95c-1.75,0-2.92,0-3.5,0c0-6.97,0-11.61,0-13.95
			c-1.73,0-2.89,0-3.48,0c0-0.87,0-1.59,0-2.17c0-0.58,0-1.02,0-1.3c5.23,0,8.71,0,10.45,0C84.07,58.88,84.07,60.04,84.07,60.81z"/>
		<path d="M96.57,57.33c0,3.48,0,8.71,0,15.67c0,0.49-0.17,0.9-0.5,1.23c-0.35,0.35-0.76,0.52-1.23,0.52c-1.56,0-3.88,0-6.97,0
			c-0.49,0-0.9-0.17-1.23-0.52c-0.35-0.33-0.52-0.74-0.52-1.23c0-1.73,0-3.91,0-6.52s0-5.67,0-9.15c0.77,0,1.93,0,3.48,0
			c0,3.09,0,7.74,0,13.95c0.79,0,1.95,0,3.5,0c0-3.1,0-7.75,0-13.95C93.87,57.33,95.02,57.33,96.57,57.33z"/>
		<path d="M107.34,66.03c0.47,0,0.88,0.17,1.23,0.52c0.33,0.33,0.5,0.74,0.5,1.23c0,1.54,0,3.87,0,6.97c-0.77,0-1.93,0-3.47,0
			c0-1.54,0-3.87,0-6.97c-0.77,0-1.94,0-3.5,0c0,1.54,0,3.87,0,6.97c-0.77,0-1.93,0-3.47,0c0-1.54,0-3.87,0-6.97
			c0-0.77,0-1.93,0-3.47c0-0.77,0-1.74,0-2.91s0-2.52,0-4.07c0.77,0,1.93,0,3.47,0c1.17,0,2.92,0,5.25,0c0.47,0,0.88,0.17,1.23,0.5
			c0.33,0.35,0.5,0.76,0.5,1.23c0,1.17,0,2.92,0,5.25c0,0.47-0.17,0.88-0.5,1.23C108.22,65.87,107.81,66.03,107.34,66.03z
			 M105.59,64.31c0-0.14,0-0.35,0-0.62c0-0.65,0-1.61,0-2.88c-0.77,0-1.94,0-3.5,0c0,0.77,0,1.94,0,3.5
			C102.88,64.31,104.04,64.31,105.59,64.31z"/>
		<path d="M121.56,59.06c0,3.5,0,8.73,0,15.7c-0.77,0-1.93,0-3.47,0c0-3.1,0-7.75,0-13.95c-0.77,0-1.94,0-3.5,0
			c0,3.11,0,7.75,0,13.95c-0.77,0-1.93,0-3.47,0c0-1.94,0-4.36,0-7.26s0-6.29,0-10.17c0.77,0,1.93,0,3.47,0c1.17,0,2.92,0,5.25,0
			c0.47,0,0.88,0.17,1.23,0.5C121.39,58.18,121.56,58.58,121.56,59.06z"/>
	</g>
	<g class="st1">
		<rect x="15.62" y="80.95" width="163.87" height="5.19"/>
	</g>
</g>
</svg>
