{
    "asset" : {
        "generator" : "Khronos glTF Blender I/O v0.9.36",
        "version" : "2.0"
    },
    "scene" : 0,
    "scenes" : [
        {
            "name" : "Scene",
            "nodes" : [
                0
            ]
        }
    ],
    "nodes" : [
        {
            "mesh" : 0,
            "name" : "Cube",
            "translation" : [
                -0.05469155311584473,
                1.0373156070709229,
                0
            ]
        }
    ],
    "materials" : [
        {
            "doubleSided" : true,
            "name" : "Material",
            "pbrMetallicRoughness" : {}
        }
    ],
    "meshes" : [
        {
            "name" : "Cube",
            "primitives" : [
                {
                    "attributes" : {
                        "POSITION" : 0,
                        "NORMAL" : 1,
                        "TEXCOORD_0" : 2
                    },
                    "indices" : 3,
                    "material" : 0
                }
            ]
        }
    ],
    "accessors" : [
        {
            "bufferView" : 0,
            "componentType" : 5126,
            "count" : 6658,
            "max" : [
                1.2355884313583374,
                1.0558342933654785,
                1.0732767581939697
            ],
            "min" : [
                -1.140109658241272,
                -1.028266191482544,
                0.5292531251907349
            ],
            "type" : "VEC3"
        },
        {
            "bufferView" : 1,
            "componentType" : 5126,
            "count" : 6658,
            "type" : "VEC3"
        },
        {
            "bufferView" : 2,
            "componentType" : 5126,
            "count" : 6658,
            "type" : "VEC2"
        },
        {
            "bufferView" : 3,
            "componentType" : 5123,
            "count" : 13542,
            "type" : "SCALAR"
        }
    ],
    "bufferViews" : [
        {
            "buffer" : 0,
            "byteLength" : 79896,
            "byteOffset" : 0
        },
        {
            "buffer" : 0,
            "byteLength" : 79896,
            "byteOffset" : 79896
        },
        {
            "buffer" : 0,
            "byteLength" : 53264,
            "byteOffset" : 159792
        },
        {
            "buffer" : 0,
            "byteLength" : 27084,
            "byteOffset" : 213056
        }
    ],
    "buffers" : [
        {
            "byteLength" : 240140,
            "uri" : "data:application/octet-stream;base64,"
        }
    ]
}
