<?xml version="1.0" encoding="utf-8"?>
<!-- Generator: Adobe Illustrator 23.0.1, SVG Export Plug-In . SVG Version: 6.00 Build 0)  -->
<svg version="1.1" id="Layer_1" xmlns="http://www.w3.org/2000/svg" xmlns:xlink="http://www.w3.org/1999/xlink" x="0px" y="0px"
	 viewBox="0 0 192 108" style="enable-background:new 0 0 192 108;" xml:space="preserve">
<style type="text/css">
	.st0{fill:#DE1B1B;}
	.st1{opacity:0.35;}
	.st2{fill:#FFFFFF;}
	.st3{opacity:0.3;}
</style>
<g>
	<g>
		<rect x="48.5" y="6.5" class="st0" width="96" height="94.5"/>
		<path d="M147,103.5H46V4h101V103.5z M51,98.5h91V9H51V98.5z"/>
	</g>
	<g class="st1">
		<rect x="51" y="93.21" width="91" height="5.19"/>
	</g>
	<g class="st1">
		<rect x="49.89" y="9.1" class="st2" width="93.38" height="5.19"/>
	</g>
</g>
<g class="st3">
	<rect x="69.01" y="31.41" transform="matrix(-0.7071 0.7071 -0.7071 -0.7071 159.3884 3.7954)" width="19.8" height="7"/>
</g>
<g>
	<polygon class="st2" points="72.5,63.5 83,53 74,44 88,30 97.5,39.5 107,30 121,44 112,53 121.5,62.5 106.5,77.5 96.5,67.5 
		86.5,77.5 	"/>
</g>
<g class="st3">
	<rect x="112.8" y="24.04" transform="matrix(0.7071 -0.7071 0.7071 0.7071 9.645 92.3544)" width="7" height="20.99"/>
</g>
<g class="st3">
	
		<rect x="67.22" y="69.38" transform="matrix(0.7071 0.7071 -0.7071 0.7071 74.1238 -33.1812)" class="st2" width="19.8" height="7"/>
</g>
<g class="st3">
	
		<rect x="105.49" y="68.59" transform="matrix(0.7071 -0.7071 0.7071 0.7071 -16.9741 103.2046)" class="st2" width="21.21" height="7"/>
</g>
</svg>
