<?xml version="1.0" encoding="utf-8"?>
<!-- Generator: Adobe Illustrator 23.0.1, SVG Export Plug-In . SVG Version: 6.00 Build 0)  -->
<svg version="1.1" id="Layer_1" xmlns="http://www.w3.org/2000/svg" xmlns:xlink="http://www.w3.org/1999/xlink" x="0px" y="0px"
	 viewBox="0 0 192 108" style="enable-background:new 0 0 192 108;" xml:space="preserve">
<style type="text/css">
	.st0{fill:#1BAFDE;}
	.st1{fill:#FFFFFF;}
	.st2{opacity:0.35;}
</style>
<g>
	<g>
		<rect x="26.5" y="8.5" class="st0" width="139" height="91"/>
		<path class="st1" d="M168,102H24V6h144V102z M29,97h134V11H29V97z"/>
	</g>
	<g>
		<path class="st1" d="M51.74,30.03c0-0.46,0-1.15,0-2.06c-0.91,0-2.28,0-4.12,0c0,2.75,0,6.86,0,12.33c0.93,0,2.3,0,4.12,0
			c0-0.46,0-1.15,0-2.06c0.91,0,2.27,0,4.09,0c0,0.91,0,2.27,0,4.09c0,0.58-0.2,1.06-0.58,1.45c-0.41,0.41-0.89,0.61-1.45,0.61
			c-1.84,0-4.58,0-8.21,0c-0.57,0-1.06-0.2-1.45-0.61c-0.41-0.39-0.61-0.87-0.61-1.45c0-1.37,0-3.43,0-6.18c0-1.13,0-2.54,0-4.23
			c0-1.73,0-3.73,0-6.01c0-0.56,0.2-1.04,0.61-1.45c0.39-0.39,0.87-0.58,1.45-0.58c1.82,0,4.56,0,8.21,0c0.56,0,1.04,0.19,1.45,0.58
			c0.39,0.41,0.58,0.89,0.58,1.45c0,0.93,0,2.3,0,4.12C54.93,30.03,53.56,30.03,51.74,30.03z"/>
		<path class="st1" d="M71.12,25.91c0,3.66,0,9.13,0,16.43c0,0.58-0.2,1.06-0.59,1.45c-0.41,0.41-0.89,0.61-1.45,0.61
			c-1.84,0-4.58,0-8.21,0c-0.58,0-1.06-0.2-1.45-0.61c-0.41-0.39-0.61-0.87-0.61-1.45c0-1.37,0-3.43,0-6.18c0-1.13,0-2.54,0-4.23
			c0-1.73,0-3.73,0-6.01c0-0.56,0.2-1.04,0.61-1.45c0.39-0.39,0.87-0.58,1.45-0.58c1.82,0,4.56,0,8.21,0c0.56,0,1.04,0.19,1.45,0.58
			C70.93,24.87,71.12,25.36,71.12,25.91z M62.91,40.31c0.93,0,2.3,0,4.12,0c0-0.19,0-0.45,0-0.81c0-2.56,0-6.4,0-11.53
			c-0.91,0-2.28,0-4.12,0c0,1.37,0,3.42,0,6.15C62.91,35.5,62.91,37.56,62.91,40.31z"/>
		<path class="st1" d="M86.41,25.91c0,4.12,0,10.28,0,18.49c-0.91,0-2.27,0-4.09,0c0-3.66,0-9.13,0-16.43c-0.91,0-2.28,0-4.12,0
			c0,3.66,0,9.13,0,16.43c-0.91,0-2.27,0-4.09,0c0-2.28,0-5.13,0-8.55c0-3.42,0-7.41,0-11.97c0.91,0,2.27,0,4.09,0
			c1.37,0,3.43,0,6.18,0c0.56,0,1.04,0.19,1.45,0.58C86.21,24.87,86.41,25.36,86.41,25.91z"/>
		<path class="st1" d="M101.69,25.91c0,4.12,0,10.28,0,18.49c-0.91,0-2.27,0-4.09,0c0-3.66,0-9.13,0-16.43c-0.91,0-2.28,0-4.12,0
			c0,3.66,0,9.13,0,16.43c-0.91,0-2.27,0-4.09,0c0-2.28,0-5.13,0-8.55c0-3.42,0-7.41,0-11.97c0.91,0,2.27,0,4.09,0
			c1.37,0,3.43,0,6.18,0c0.56,0,1.04,0.19,1.45,0.58C101.5,24.87,101.69,25.36,101.69,25.91z"/>
		<path class="st1" d="M108.77,27.97c0,1.82,0,3.19,0,4.12c2.75,0,4.81,0,6.18,0c0,1.82,0,3.18,0,4.09c-2.75,0-4.81,0-6.18,0
			c0,1.82,0,3.19,0,4.12c3.66,0,6.39,0,8.21,0c0,1.82,0,3.18,0,4.09c-3.64,0-6.38,0-8.21,0c-1.82,0-3.18,0-4.09,0
			c0-1.82,0-3.18,0-4.09c0-0.93,0-1.74,0-2.42c0-0.69,0-1.25,0-1.7c0-2.06,0-3.42,0-4.09c0-2.06,0-3.43,0-4.12c0-2.04,0-3.41,0-4.09
			c2.06,0,3.42,0,4.09,0c4.12,0,6.86,0,8.21,0c0,2.04,0,3.41,0,4.09C113.34,27.97,110.61,27.97,108.77,27.97z"/>
		<path class="st1" d="M128.17,30.03c0-0.46,0-1.15,0-2.06c-0.91,0-2.28,0-4.12,0c0,2.75,0,6.86,0,12.33c0.93,0,2.3,0,4.12,0
			c0-0.46,0-1.15,0-2.06c0.91,0,2.27,0,4.09,0c0,0.91,0,2.27,0,4.09c0,0.58-0.19,1.06-0.58,1.45c-0.41,0.41-0.89,0.61-1.45,0.61
			c-1.84,0-4.58,0-8.21,0c-0.58,0-1.06-0.2-1.45-0.61c-0.41-0.39-0.61-0.87-0.61-1.45c0-1.37,0-3.43,0-6.18c0-1.13,0-2.54,0-4.23
			c0-1.73,0-3.73,0-6.01c0-0.56,0.2-1.04,0.61-1.45c0.39-0.39,0.87-0.58,1.45-0.58c1.82,0,4.56,0,8.21,0c0.56,0,1.04,0.19,1.45,0.58
			c0.39,0.41,0.58,0.89,0.58,1.45c0,0.93,0,2.3,0,4.12C131.36,30.03,129.99,30.03,128.17,30.03z"/>
		<path class="st1" d="M147.55,27.97c-1.82,0-3.18,0-4.09,0c0,8.22,0,13.7,0,16.43c-2.06,0-3.43,0-4.12,0c0-8.2,0-13.68,0-16.43
			c-2.04,0-3.41,0-4.09,0c0-1.02,0-1.87,0-2.56c0-0.69,0-1.2,0-1.53c6.16,0,10.26,0,12.31,0C147.55,25.7,147.55,27.06,147.55,27.97z
			"/>
		<path class="st1" d="M50.26,84.79c-3.18,0-5.57,0-7.16,0c0-3.18,0-5.57,0-7.16c0-3.22,0-5.62,0-7.21c0-3.18,0-5.57,0-7.16
			c0-1.59,0-2.99,0-4.19c0-1.23,0-2.24,0-3.02c0-3.18,0-5.57,0-7.16c3.18,0,5.57,0,7.16,0c6.4,0,11.19,0,14.37,0
			c0,3.18,0,5.57,0,7.16c-7.18,0-11.97,0-14.37,0c0,3.61,0,6.01,0,7.21c5.39,0,9,0,10.82,0c0,3.57,0,5.96,0,7.16
			c-5.39,0-9,0-10.82,0c0,3.61,0,6.01,0,7.21C50.26,80.81,50.26,83.2,50.26,84.79z"/>
		<path class="st1" d="M91.39,52.44c0,6.4,0,15.98,0,28.75c0,1.01-0.34,1.85-1.02,2.53c-0.71,0.71-1.56,1.07-2.53,1.07
			c-3.22,0-8.01,0-14.37,0c-1.01,0-1.85-0.36-2.53-1.07c-0.71-0.68-1.07-1.53-1.07-2.53c0-2.4,0-6.01,0-10.82c0-1.98,0-4.45,0-7.41
			c0-3.02,0-6.53,0-10.52c0-0.97,0.36-1.82,1.07-2.53c0.68-0.68,1.53-1.02,2.53-1.02c3.18,0,7.97,0,14.37,0
			c0.97,0,1.82,0.34,2.53,1.02C91.05,50.62,91.39,51.46,91.39,52.44z M77.02,77.63c1.62,0,4.03,0,7.21,0c0-0.32,0-0.8,0-1.41
			c0-4.48,0-11.21,0-20.17c-1.59,0-4,0-7.21,0c0,2.4,0,5.99,0,10.77C77.02,69.21,77.02,72.82,77.02,77.63z"/>
		<path class="st1" d="M118.14,48.88c0,7.18,0,17.95,0,32.3c0,1.01-0.34,1.85-1.02,2.53c-0.71,0.71-1.56,1.07-2.53,1.07
			c-3.22,0-8.01,0-14.37,0c-1.01,0-1.85-0.36-2.53-1.07c-0.71-0.68-1.07-1.53-1.07-2.53c0-3.57,0-8.06,0-13.45s0-11.68,0-18.86
			c1.59,0,3.98,0,7.16,0c0,6.37,0,15.95,0,28.75c1.62,0,4.03,0,7.21,0c0-6.4,0-15.98,0-28.75
			C112.57,48.88,114.96,48.88,118.14,48.88z"/>
		<path class="st1" d="M141.33,66.81c0.97,0,1.82,0.36,2.53,1.07c0.68,0.68,1.02,1.53,1.02,2.53c0,3.18,0,7.97,0,14.37
			c-1.59,0-3.98,0-7.16,0c0-3.18,0-7.97,0-14.37c-1.59,0-4,0-7.21,0c0,3.18,0,7.97,0,14.37c-1.59,0-3.98,0-7.16,0
			c0-3.18,0-7.97,0-14.37c0-1.59,0-3.98,0-7.16c0-1.59,0-3.59,0-5.99c0-2.4,0-5.2,0-8.38c1.59,0,3.98,0,7.16,0c2.4,0,6.01,0,10.82,0
			c0.97,0,1.82,0.34,2.53,1.02c0.68,0.71,1.02,1.56,1.02,2.53c0,2.4,0,6.01,0,10.82c0,0.97-0.34,1.82-1.02,2.53
			C143.15,66.47,142.31,66.81,141.33,66.81z M137.73,63.25c0-0.29,0-0.71,0-1.27c0-1.33,0-3.31,0-5.94c-1.59,0-4,0-7.21,0
			c0,1.59,0,4,0,7.21C132.14,63.25,134.54,63.25,137.73,63.25z"/>
	</g>
	<g class="st2">
		<rect x="29" y="92" width="134" height="5"/>
	</g>
	<g class="st2">
		<rect x="28.5" y="11" class="st1" width="134.5" height="5"/>
	</g>
</g>
</svg>
