<?xml version="1.0" encoding="utf-8"?>
<!-- Generator: Adobe Illustrator 23.0.1, SVG Export Plug-In . SVG Version: 6.00 Build 0)  -->
<svg version="1.1" id="Layer_1" xmlns="http://www.w3.org/2000/svg" xmlns:xlink="http://www.w3.org/1999/xlink" x="0px" y="0px"
	 viewBox="0 0 192 108" style="enable-background:new 0 0 192 108;" xml:space="preserve">
<style type="text/css">
	.st0{fill:#FFFFFF;}
	.st1{opacity:0.35;}
	.st2{fill:#999999;}
	.st3{opacity:0.1;}
</style>
<g>
	<g>
		<rect x="27.67" y="14.3" class="st0" width="137.17" height="89.21"/>
		<path d="M166.32,105H26.18V12.82h140.13V105z M29.15,102.03h134.2V15.79H29.15V102.03z"/>
	</g>
	<g class="st1">
		<rect x="27.88" y="97.77" width="135.57" height="4.25"/>
	</g>
	<g>
		<rect x="52.97" y="3.21" class="st2" width="86" height="24.63"/>
		<path d="M140.24,29.12H51.7V1.94h88.54V29.12z M54.24,26.57h83.46V4.48H54.24V26.57z"/>
	</g>
	<g class="st3">
		<rect x="54.78" y="24.46" width="82.5" height="1.89"/>
	</g>
	<g class="st1">
		<rect x="54.47" y="4.71" class="st0" width="82.8" height="1.89"/>
	</g>
	<g>
		<path class="st0" d="M83.12,18.43c0,1,0,1.66,0,2c-2,0-3.34,0-4.01,0c-0.74,0-1.24,0-1.49,0s-0.42,0-0.5,0c0-2.51,0-4.59,0-6.26
			c0-1.67,0-2.91,0-3.75c1,0,1.67,0,2,0c0,4,0,6.67,0,8.01C80.9,18.43,82.23,18.43,83.12,18.43z"/>
		<path class="st0" d="M90.3,11.4c0,1.78,0,4.45,0,8.01c0,0.28-0.1,0.52-0.29,0.71c-0.2,0.2-0.43,0.3-0.71,0.3c-0.9,0-2.23,0-4.01,0
			c-0.28,0-0.52-0.1-0.71-0.3c-0.2-0.19-0.3-0.43-0.3-0.71c0-0.67,0-1.67,0-3.01c0-0.55,0-1.24,0-2.06c0-0.84,0-1.82,0-2.93
			c0-0.27,0.1-0.51,0.3-0.71c0.19-0.19,0.43-0.29,0.71-0.29c0.89,0,2.22,0,4.01,0c0.27,0,0.51,0.1,0.71,0.29
			C90.2,10.9,90.3,11.13,90.3,11.4z M86.29,18.43c0.45,0,1.12,0,2.01,0c0-0.09,0-0.22,0-0.39c0-1.25,0-3.12,0-5.62
			c-0.44,0-1.11,0-2.01,0c0,0.67,0,1.67,0,3C86.29,16.08,86.29,17.09,86.29,18.43z"/>
		<path class="st0" d="M95.48,13.41c0-0.23,0-0.56,0-1c-0.44,0-1.11,0-2.01,0c0,0.44,0,1.11,0,2.01c0.67,0,1.67,0,3.01,0
			c0.27,0,0.51,0.1,0.71,0.29c0.19,0.2,0.29,0.43,0.29,0.71c0,0.9,0,2.23,0,4.01c0,0.28-0.1,0.52-0.29,0.71
			c-0.2,0.2-0.43,0.3-0.71,0.3c-0.9,0-2.23,0-4.01,0c-0.28,0-0.52-0.1-0.71-0.3c-0.2-0.19-0.3-0.43-0.3-0.71c0-0.44,0-1.11,0-2
			c0.44,0,1.11,0,2,0c0,0.22,0,0.55,0,1c0.45,0,1.12,0,2.01,0c0-0.45,0-1.12,0-2.01c-0.67,0-1.67,0-3,0c-0.28,0-0.52-0.1-0.71-0.29
			c-0.2-0.2-0.3-0.44-0.3-0.72c0-0.44,0-1,0-1.67c0-0.67,0-1.45,0-2.34c0-0.27,0.1-0.51,0.3-0.71c0.19-0.19,0.43-0.29,0.71-0.29
			c0.89,0,2.22,0,4.01,0c0.27,0,0.51,0.1,0.71,0.29c0.19,0.2,0.29,0.43,0.29,0.71c0,0.45,0,1.12,0,2.01
			C97.03,13.41,96.37,13.41,95.48,13.41z"/>
		<path class="st0" d="M100.65,12.41c0,0.89,0,1.56,0,2.01c1.34,0,2.34,0,3.01,0c0,0.89,0,1.55,0,2c-1.34,0-2.34,0-3.01,0
			c0,0.89,0,1.56,0,2.01c1.78,0,3.12,0,4.01,0c0,0.89,0,1.55,0,2c-1.77,0-3.11,0-4.01,0c-0.89,0-1.55,0-2,0c0-0.89,0-1.55,0-2
			c0-0.45,0-0.85,0-1.18s0-0.61,0-0.83c0-1,0-1.67,0-2c0-1,0-1.67,0-2.01c0-1,0-1.66,0-2c1,0,1.67,0,2,0c2.01,0,3.34,0,4.01,0
			c0,1,0,1.66,0,2C102.88,12.41,101.54,12.41,100.65,12.41z"/>
		<path class="st0" d="M110.84,15.41c0.27,0,0.51,0.1,0.71,0.3c0.19,0.19,0.29,0.43,0.29,0.71c0,0.89,0,2.22,0,4.01
			c-0.44,0-1.11,0-2,0c0-0.89,0-2.22,0-4.01c-0.44,0-1.11,0-2.01,0c0,0.89,0,2.22,0,4.01c-0.44,0-1.11,0-2,0c0-0.89,0-2.22,0-4.01
			c0-0.44,0-1.11,0-2c0-0.44,0-1,0-1.67c0-0.67,0-1.45,0-2.34c0.44,0,1.11,0,2,0c0.67,0,1.67,0,3.01,0c0.27,0,0.51,0.1,0.71,0.29
			c0.19,0.2,0.29,0.43,0.29,0.71c0,0.67,0,1.67,0,3.01c0,0.27-0.1,0.51-0.29,0.71C111.35,15.32,111.11,15.41,110.84,15.41z
			 M109.83,14.42c0-0.08,0-0.2,0-0.35c0-0.37,0-0.92,0-1.66c-0.44,0-1.11,0-2.01,0c0,0.44,0,1.11,0,2.01
			C108.28,14.42,108.95,14.42,109.83,14.42z"/>
		<path class="st0" d="M113.01,10.41c0.33,0,1,0,2,0c0,1.17,0,3.5,0,7.01c-0.33,0-0.99,0-2,0c0-0.58,0-1.45,0-2.62
			S113.01,12.17,113.01,10.41z M113.01,18.43c0.33,0,1,0,2,0c0,0.33,0,0.99,0,2c-0.33,0-0.99,0-2,0c0-0.16,0-0.41,0-0.75
			C113.01,19.34,113.01,18.92,113.01,18.43z"/>
	</g>
</g>
</svg>
