<?xml version="1.0" encoding="utf-8"?>
<!-- Generator: Adobe Illustrator 23.0.1, SVG Export Plug-In . SVG Version: 6.00 Build 0)  -->
<svg version="1.1" id="Layer_1" xmlns="http://www.w3.org/2000/svg" xmlns:xlink="http://www.w3.org/1999/xlink" x="0px" y="0px"
	 viewBox="0 0 192 108" style="enable-background:new 0 0 192 108;" xml:space="preserve">
<g>
	<path d="M23.01,48.04c0,1.39,0,3.45,0,6.2c0,0.43-0.15,0.81-0.44,1.11c-0.31,0.29-0.67,0.44-1.09,0.44c-1.04,0-2.59,0-4.67,0
		c0,1.37,0,3.44,0,6.2c-0.69,0-1.72,0-3.09,0c0-0.69,0-1.55,0-2.59c0-1.02,0-2.23,0-3.62c0-0.69,0-1.72,0-3.09c0-0.7,0-1.74,0-3.11
		c0-0.69,0-1.72,0-3.09c0.69,0,1.72,0,3.09,0c1.04,0,2.59,0,4.67,0c0.42,0,0.78,0.15,1.09,0.44C22.86,47.26,23.01,47.62,23.01,48.04
		z M16.81,52.71c0.7,0,1.74,0,3.11,0c0-0.13,0-0.31,0-0.55c0-0.57,0-1.43,0-2.56c-0.69,0-1.72,0-3.11,0
		C16.81,50.29,16.81,51.32,16.81,52.71z"/>
	<path d="M33.68,58.91c0,1.54,0,2.57,0,3.09c-3.1,0-5.16,0-6.2,0c-1.15,0-1.92,0-2.31,0c-0.39,0-0.65,0-0.78,0c0-3.88,0-7.11,0-9.69
		c0-2.58,0-4.51,0-5.8c1.56,0,2.59,0,3.09,0c0,6.19,0,10.33,0,12.4C30.24,58.91,32.31,58.91,33.68,58.91z"/>
	<path d="M44.36,62c-0.69,0-1.72,0-3.09,0c0-1.37,0-3.44,0-6.2c-0.69,0-1.72,0-3.11,0c0,1.37,0,3.44,0,6.2c-0.69,0-1.72,0-3.09,0
		c0-1.16,0-2.91,0-5.25c0-0.97,0-2.17,0-3.62c0-1.46,0-3.15,0-5.09c0-0.42,0.15-0.78,0.46-1.09c0.29-0.29,0.66-0.44,1.09-0.44
		c1.37,0,3.44,0,6.2,0c0.42,0,0.78,0.15,1.09,0.44c0.29,0.31,0.44,0.67,0.44,1.09C44.36,51.15,44.36,55.81,44.36,62z M41.27,52.71
		c0-0.13,0-0.31,0-0.55c0-0.57,0-1.43,0-2.56c-0.69,0-1.72,0-3.11,0c0,0.69,0,1.72,0,3.11C38.86,52.71,39.9,52.71,41.27,52.71z"/>
	<path d="M56.93,46.51c-1.89,3.78-3.31,6.62-4.25,8.51c0,3.49,0,5.81,0,6.98c-1.56,0-2.59,0-3.11,0c0-3.49,0-5.81,0-6.98
		c-2.13-4.26-3.55-7.1-4.25-8.51c1.74,0,2.89,0,3.47,0c1.16,2.51,1.94,4.18,2.33,5.02c1.16-2.51,1.94-4.18,2.33-5.02
		C55.01,46.51,56.16,46.51,56.93,46.51z"/>
	<path d="M60.97,49.6c0,1.37,0,2.41,0,3.11c2.07,0,3.63,0,4.67,0c0,1.37,0,2.4,0,3.09c-2.07,0-3.63,0-4.67,0c0,1.37,0,2.41,0,3.11
		c2.76,0,4.83,0,6.2,0c0,1.37,0,2.4,0,3.09c-2.75,0-4.81,0-6.2,0c-1.37,0-2.4,0-3.09,0c0-0.69,0-1.29,0-1.81c0-0.52,0-0.95,0-1.28
		c0-1.56,0-2.59,0-3.11c0-1.56,0-2.59,0-3.09c0-1.56,0-2.59,0-3.11c0-1.54,0-2.57,0-3.09c1.55,0,2.59,0,3.09,0c3.11,0,5.18,0,6.2,0
		c0,1.54,0,2.57,0,3.09C64.42,49.6,62.36,49.6,60.97,49.6z"/>
	<path d="M76.32,54.24c0.42,0,0.78,0.15,1.09,0.46c0.29,0.29,0.44,0.66,0.44,1.09c0,1.37,0,3.44,0,6.2c-0.69,0-1.72,0-3.09,0
		c0-1.37,0-3.44,0-6.2c-0.69,0-1.72,0-3.11,0c0,1.37,0,3.44,0,6.2c-0.69,0-1.72,0-3.09,0c0-1.37,0-3.44,0-6.2c0-0.69,0-1.72,0-3.09
		c0-0.69,0-1.55,0-2.59c0-1.04,0-2.24,0-3.61c0.69,0,1.72,0,3.09,0c1.04,0,2.59,0,4.67,0c0.42,0,0.78,0.15,1.09,0.44
		c0.29,0.31,0.44,0.67,0.44,1.09c0,1.04,0,2.59,0,4.67c0,0.42-0.15,0.78-0.44,1.09C77.1,54.1,76.74,54.24,76.32,54.24z M74.76,52.71
		c0-0.13,0-0.31,0-0.55c0-0.57,0-1.43,0-2.56c-0.69,0-1.72,0-3.11,0c0,0.69,0,1.72,0,3.11C72.35,52.71,73.39,52.71,74.76,52.71z"/>
	<path d="M99.21,49.6c-1.37,0-2.4,0-3.09,0c0,6.21,0,10.34,0,12.4c-1.56,0-2.59,0-3.11,0c0-6.19,0-10.33,0-12.4
		c-1.54,0-2.57,0-3.09,0c0-0.77,0-1.42,0-1.93c0-0.52,0-0.9,0-1.16c4.65,0,7.75,0,9.29,0C99.21,47.88,99.21,48.91,99.21,49.6z"/>
	<path d="M100.6,60.44c0-1.54,0-3.47,0-5.8c0-2.33,0-5.04,0-8.13c0.69,0,1.72,0,3.09,0c0,2.75,0,6.88,0,12.4c0.7,0,1.74,0,3.11,0
		c0-2.76,0-6.89,0-12.4c0.69,0,1.72,0,3.09,0c0,2.75,0,6.88,0,12.4c0.7,0,1.74,0,3.11,0c0-2.76,0-6.89,0-12.4c0.69,0,1.72,0,3.09,0
		c0,3.1,0,7.74,0,13.93c0,0.43-0.15,0.8-0.44,1.09c-0.31,0.31-0.67,0.46-1.09,0.46c-1.04,0-2.59,0-4.67,0
		c-0.42,0-0.78-0.15-1.09-0.46c-0.29-0.29-0.44-0.66-0.44-1.09c0,0.43-0.15,0.8-0.46,1.09c-0.29,0.31-0.66,0.46-1.09,0.46
		c-1.04,0-2.59,0-4.64,0c-0.43,0-0.8-0.15-1.09-0.46C100.75,61.24,100.6,60.88,100.6,60.44z"/>
	<path d="M126.77,48.04c0,2.76,0,6.89,0,12.4c0,0.43-0.15,0.8-0.44,1.09c-0.31,0.31-0.67,0.46-1.09,0.46c-1.39,0-3.45,0-6.2,0
		c-0.43,0-0.8-0.15-1.09-0.46c-0.31-0.29-0.46-0.66-0.46-1.09c0-1.04,0-2.59,0-4.67c0-0.85,0-1.92,0-3.19c0-1.3,0-2.82,0-4.54
		c0-0.42,0.15-0.78,0.46-1.09c0.29-0.29,0.66-0.44,1.09-0.44c1.37,0,3.44,0,6.2,0c0.42,0,0.78,0.15,1.09,0.44
		C126.62,47.26,126.77,47.62,126.77,48.04z M120.57,58.91c0.7,0,1.74,0,3.11,0c0-0.14,0-0.34,0-0.61c0-1.93,0-4.83,0-8.7
		c-0.69,0-1.72,0-3.11,0c0,1.04,0,2.59,0,4.65C120.57,55.28,120.57,56.84,120.57,58.91z"/>
	<path d="M138.83,60.44c0-1.54,0-3.47,0-5.8c0-2.33,0-5.04,0-8.13c0.69,0,1.72,0,3.09,0c0,2.75,0,6.88,0,12.4c0.7,0,1.74,0,3.11,0
		c0-2.76,0-6.89,0-12.4c0.69,0,1.72,0,3.09,0c0,2.75,0,6.88,0,12.4c0.7,0,1.74,0,3.11,0c0-2.76,0-6.89,0-12.4c0.69,0,1.72,0,3.09,0
		c0,3.1,0,7.74,0,13.93c0,0.43-0.15,0.8-0.44,1.09c-0.31,0.31-0.67,0.46-1.09,0.46c-1.04,0-2.59,0-4.67,0
		c-0.42,0-0.78-0.15-1.09-0.46c-0.29-0.29-0.44-0.66-0.44-1.09c0,0.43-0.15,0.8-0.46,1.09c-0.29,0.31-0.66,0.46-1.09,0.46
		c-1.04,0-2.59,0-4.64,0c-0.43,0-0.8-0.15-1.09-0.46C138.99,61.24,138.83,60.88,138.83,60.44z"/>
	<path d="M155.71,46.51c0.52,0,1.55,0,3.09,0c0,1.93,0,5.81,0,11.62c0,0.64,0,1.93,0,3.87c-0.5,0-1.53,0-3.09,0
		c0-1.72,0-3.87,0-6.45C155.71,52.97,155.71,49.96,155.71,46.51z"/>
	<path d="M169.48,48.04c0,3.11,0,7.76,0,13.96c-0.69,0-1.72,0-3.09,0c0-2.76,0-6.89,0-12.4c-0.69,0-1.72,0-3.11,0
		c0,2.76,0,6.89,0,12.4c-0.69,0-1.72,0-3.09,0c0-1.72,0-3.87,0-6.45c0-2.58,0-5.59,0-9.04c0.69,0,1.72,0,3.09,0
		c1.04,0,2.59,0,4.67,0c0.42,0,0.78,0.15,1.09,0.44C169.33,47.26,169.48,47.62,169.48,48.04z"/>
	<path d="M177.07,51.15c0-0.35,0-0.87,0-1.56c-0.69,0-1.72,0-3.11,0c0,0.69,0,1.72,0,3.11c1.04,0,2.59,0,4.67,0
		c0.42,0,0.78,0.15,1.09,0.44c0.29,0.31,0.44,0.67,0.44,1.09c0,1.39,0,3.45,0,6.2c0,0.43-0.15,0.8-0.44,1.09
		c-0.31,0.31-0.67,0.46-1.09,0.46c-1.39,0-3.45,0-6.2,0c-0.43,0-0.8-0.15-1.09-0.46c-0.31-0.29-0.46-0.66-0.46-1.09
		c0-0.69,0-1.72,0-3.09c0.69,0,1.72,0,3.09,0c0,0.34,0,0.85,0,1.56c0.7,0,1.74,0,3.11,0c0-0.7,0-1.74,0-3.11c-1.04,0-2.59,0-4.64,0
		c-0.43,0-0.8-0.15-1.09-0.44c-0.31-0.31-0.46-0.68-0.46-1.11c0-0.69,0-1.55,0-2.59s0-2.24,0-3.62c0-0.42,0.15-0.78,0.46-1.09
		c0.29-0.29,0.66-0.44,1.09-0.44c1.37,0,3.44,0,6.2,0c0.42,0,0.78,0.15,1.09,0.44c0.29,0.31,0.44,0.67,0.44,1.09
		c0,0.7,0,1.74,0,3.11C179.47,51.15,178.44,51.15,177.07,51.15z"/>
</g>
</svg>
