<?xml version="1.0" encoding="utf-8"?>
<!-- Generator: Adobe Illustrator 23.0.1, SVG Export Plug-In . SVG Version: 6.00 Build 0)  -->
<svg version="1.1" id="Layer_1" xmlns="http://www.w3.org/2000/svg" xmlns:xlink="http://www.w3.org/1999/xlink" x="0px" y="0px"
	 viewBox="0 0 192 108" style="enable-background:new 0 0 192 108;" xml:space="preserve">
<style type="text/css">
	.st0{fill:#1BAFDE;}
	.st1{fill:#FFFFFF;}
	.st2{opacity:0.35;}
</style>
<g>
	<g>
		<rect x="13.47" y="31.88" class="st0" width="167.57" height="43.75"/>
		<path class="st1" d="M182.41,77H12.09V30.5h170.32V77z M14.84,74.25h164.81v-41H14.84V74.25z"/>
	</g>
	<g class="st2">
		<rect x="15.74" y="72.02" width="163.92" height="2.4"/>
	</g>
	<g class="st2">
		<rect x="15.13" y="33.08" class="st1" width="164.53" height="2.4"/>
	</g>
</g>
<g>
	<path class="st1" d="M35.7,49.95c0-0.32,0-0.8,0-1.43c-0.63,0-1.58,0-2.85,0c0,0.63,0,1.58,0,2.85c0.95,0,2.38,0,4.28,0
		c0.39,0,0.72,0.13,1,0.41c0.27,0.28,0.41,0.62,0.41,1c0,1.27,0,3.17,0,5.69c0,0.4-0.13,0.73-0.41,1c-0.28,0.28-0.62,0.42-1,0.42
		c-1.27,0-3.17,0-5.69,0c-0.4,0-0.73-0.14-1-0.42c-0.28-0.27-0.42-0.6-0.42-1c0-0.63,0-1.58,0-2.84c0.63,0,1.58,0,2.84,0
		c0,0.31,0,0.78,0,1.43c0.64,0,1.59,0,2.85,0c0-0.64,0-1.59,0-2.85c-0.95,0-2.37,0-4.26,0c-0.4,0-0.73-0.13-1-0.41
		c-0.28-0.28-0.42-0.62-0.42-1.02c0-0.63,0-1.42,0-2.37c0-0.95,0-2.06,0-3.32c0-0.39,0.14-0.72,0.42-1c0.27-0.27,0.6-0.41,1-0.41
		c1.26,0,3.16,0,5.69,0c0.39,0,0.72,0.13,1,0.41c0.27,0.28,0.41,0.62,0.41,1c0,0.64,0,1.6,0,2.86C37.9,49.95,36.96,49.95,35.7,49.95
		z"/>
	<path class="st1" d="M40.8,45.69c0.48,0,1.42,0,2.84,0c0,1.77,0,5.33,0,10.67c0,0.59,0,1.78,0,3.55c-0.46,0-1.41,0-2.84,0
		c0-1.18,0-2.96,0-5.32S40.8,49.25,40.8,45.69z"/>
	<path class="st1" d="M54.42,47.1c0,2.86,0,7.12,0,12.81c-0.63,0-1.58,0-2.84,0c0-2.53,0-6.33,0-11.38c-0.63,0-1.58,0-2.85,0
		c0,2.53,0,6.33,0,11.38c-0.63,0-1.58,0-2.84,0c0-1.58,0-3.56,0-5.92s0-5.13,0-8.29c0.63,0,1.58,0,2.84,0c0.95,0,2.38,0,4.28,0
		c0.39,0,0.72,0.13,1,0.41C54.28,46.38,54.42,46.71,54.42,47.1z"/>
	<path class="st1" d="M62.37,49.95c0-0.32,0-0.8,0-1.43c-0.63,0-1.58,0-2.85,0c0,1.9,0,4.75,0,8.55c0.64,0,1.59,0,2.85,0
		c0-0.64,0-1.59,0-2.85c-0.32,0-0.8,0-1.43,0c0-0.63,0-1.58,0-2.84c0.95,0,2.37,0,4.26,0c0,0.63,0,1.58,0,2.84c0,0.95,0,2.37,0,4.26
		c0,0.4-0.13,0.73-0.41,1c-0.28,0.28-0.62,0.42-1,0.42c-1.27,0-3.17,0-5.69,0c-0.4,0-0.73-0.14-1-0.42c-0.28-0.27-0.42-0.6-0.42-1
		c0-0.95,0-2.38,0-4.28c0-0.78,0-1.76,0-2.93c0-1.2,0-2.58,0-4.17c0-0.39,0.14-0.72,0.42-1c0.27-0.27,0.6-0.41,1-0.41
		c1.26,0,3.16,0,5.69,0c0.39,0,0.72,0.13,1,0.41c0.27,0.28,0.41,0.62,0.41,1c0,0.64,0,1.6,0,2.86
		C64.58,49.95,63.63,49.95,62.37,49.95z"/>
	<path class="st1" d="M76,57.07c0,1.41,0,2.36,0,2.84c-2.84,0-4.74,0-5.69,0c-1.05,0-1.76,0-2.12,0s-0.6,0-0.71,0
		c0-3.56,0-6.53,0-8.89c0-2.37,0-4.14,0-5.32c1.43,0,2.37,0,2.84,0c0,5.68,0,9.48,0,11.38C72.84,57.07,74.74,57.07,76,57.07z"/>
	<path class="st1" d="M81.09,48.52c0,1.26,0,2.21,0,2.85c1.9,0,3.33,0,4.28,0c0,1.26,0,2.21,0,2.84c-1.9,0-3.33,0-4.28,0
		c0,1.26,0,2.21,0,2.85c2.53,0,4.43,0,5.69,0c0,1.26,0,2.21,0,2.84c-2.52,0-4.42,0-5.69,0c-1.26,0-2.21,0-2.84,0
		c0-0.63,0-1.18,0-1.66c0-0.48,0-0.87,0-1.18c0-1.43,0-2.38,0-2.85c0-1.43,0-2.37,0-2.84c0-1.43,0-2.38,0-2.85c0-1.41,0-2.36,0-2.84
		c1.43,0,2.37,0,2.84,0c2.85,0,4.75,0,5.69,0c0,1.41,0,2.36,0,2.84C84.26,48.52,82.37,48.52,81.09,48.52z"/>
	<path class="st1" d="M108.36,47.1c0,1.27,0,3.17,0,5.69c0,0.4-0.13,0.74-0.41,1.02c-0.28,0.27-0.62,0.41-1,0.41
		c-0.95,0-2.38,0-4.28,0c0,1.26,0,3.16,0,5.69c-0.63,0-1.58,0-2.84,0c0-0.63,0-1.42,0-2.37c0-0.94,0-2.04,0-3.32
		c0-0.63,0-1.58,0-2.84c0-0.64,0-1.59,0-2.85c0-0.63,0-1.58,0-2.84c0.63,0,1.58,0,2.84,0c0.95,0,2.38,0,4.28,0
		c0.39,0,0.72,0.13,1,0.41C108.23,46.38,108.36,46.71,108.36,47.1z M102.67,51.38c0.64,0,1.59,0,2.85,0c0-0.12,0-0.28,0-0.5
		c0-0.53,0-1.31,0-2.35c-0.63,0-1.58,0-2.85,0C102.67,49.15,102.67,50.11,102.67,51.38z"/>
	<path class="st1" d="M119.15,57.07c0,1.41,0,2.36,0,2.84c-2.84,0-4.74,0-5.69,0c-1.05,0-1.76,0-2.12,0c-0.36,0-0.6,0-0.71,0
		c0-3.56,0-6.53,0-8.89c0-2.37,0-4.14,0-5.32c1.43,0,2.37,0,2.84,0c0,5.68,0,9.48,0,11.38C115.99,57.07,117.89,57.07,119.15,57.07z"
		/>
	<path class="st1" d="M129.94,59.91c-0.63,0-1.58,0-2.84,0c0-1.26,0-3.16,0-5.69c-0.63,0-1.58,0-2.85,0c0,1.26,0,3.16,0,5.69
		c-0.63,0-1.58,0-2.84,0c0-1.07,0-2.67,0-4.82c0-0.89,0-1.99,0-3.32c0-1.34,0-2.89,0-4.67c0-0.39,0.14-0.72,0.42-1
		c0.27-0.27,0.6-0.41,1-0.41c1.26,0,3.16,0,5.69,0c0.39,0,0.72,0.13,1,0.41c0.27,0.28,0.41,0.62,0.41,1
		C129.94,49.95,129.94,54.22,129.94,59.91z M127.1,51.38c0-0.12,0-0.28,0-0.5c0-0.53,0-1.31,0-2.35c-0.63,0-1.58,0-2.85,0
		c0,0.63,0,1.58,0,2.85C124.89,51.38,125.84,51.38,127.1,51.38z"/>
	<path class="st1" d="M142.46,45.69c-1.74,3.47-3.04,6.08-3.9,7.81c0,3.2,0,5.34,0,6.4c-1.43,0-2.38,0-2.86,0c0-3.2,0-5.34,0-6.4
		c-1.96-3.91-3.25-6.51-3.9-7.81c1.59,0,2.66,0,3.18,0c1.07,2.3,1.78,3.84,2.14,4.61c1.07-2.3,1.78-3.84,2.14-4.61
		C140.7,45.69,141.76,45.69,142.46,45.69z"/>
	<path class="st1" d="M147.16,48.52c0,1.26,0,2.21,0,2.85c1.9,0,3.33,0,4.28,0c0,1.26,0,2.21,0,2.84c-1.9,0-3.33,0-4.28,0
		c0,1.26,0,2.21,0,2.85c2.53,0,4.43,0,5.69,0c0,1.26,0,2.21,0,2.84c-2.52,0-4.42,0-5.69,0c-1.26,0-2.21,0-2.84,0
		c0-0.63,0-1.18,0-1.66c0-0.48,0-0.87,0-1.18c0-1.43,0-2.38,0-2.85c0-1.43,0-2.37,0-2.84c0-1.43,0-2.38,0-2.85c0-1.41,0-2.36,0-2.84
		c1.43,0,2.37,0,2.84,0c2.85,0,4.75,0,5.69,0c0,1.41,0,2.36,0,2.84C150.33,48.52,148.43,48.52,147.16,48.52z"/>
	<path class="st1" d="M162.23,52.79c0.39,0,0.72,0.14,1,0.42c0.27,0.27,0.41,0.6,0.41,1c0,1.26,0,3.16,0,5.69c-0.63,0-1.58,0-2.84,0
		c0-1.26,0-3.16,0-5.69c-0.63,0-1.58,0-2.85,0c0,1.26,0,3.16,0,5.69c-0.63,0-1.58,0-2.84,0c0-1.26,0-3.16,0-5.69
		c0-0.63,0-1.58,0-2.84c0-0.63,0-1.42,0-2.37s0-2.06,0-3.32c0.63,0,1.58,0,2.84,0c0.95,0,2.38,0,4.28,0c0.39,0,0.72,0.13,1,0.41
		c0.27,0.28,0.41,0.62,0.41,1c0,0.95,0,2.38,0,4.28c0,0.39-0.13,0.72-0.41,1C162.95,52.65,162.61,52.79,162.23,52.79z M160.8,51.38
		c0-0.12,0-0.28,0-0.5c0-0.53,0-1.31,0-2.35c-0.63,0-1.58,0-2.85,0c0,0.63,0,1.58,0,2.85C158.59,51.38,159.54,51.38,160.8,51.38z"/>
</g>
</svg>
