<?xml version="1.0" encoding="utf-8"?>
<!-- Generator: Adobe Illustrator 23.0.1, SVG Export Plug-In . SVG Version: 6.00 Build 0)  -->
<svg version="1.1" id="Layer_1" xmlns="http://www.w3.org/2000/svg" xmlns:xlink="http://www.w3.org/1999/xlink" x="0px" y="0px"
	 viewBox="0 0 192 108" style="enable-background:new 0 0 192 108;" xml:space="preserve">
<style type="text/css">
	.st0{fill:#1BAFDE;}
	.st1{fill:#FFFFFF;}
	.st2{opacity:0.35;}
</style>
<g>
	<g>
		<rect x="15.82" y="32.82" class="st0" width="160.86" height="42"/>
		<path class="st1" d="M178,76.14H14.5V31.5H178V76.14z M17.14,73.5h158.22V34.14H17.14V73.5z"/>
	</g>
	<g class="st2">
		<rect x="18" y="71.36" width="156.5" height="2.31"/>
	</g>
	<g class="st2">
		<rect x="17.41" y="33.97" class="st1" width="157.09" height="2.31"/>
	</g>
</g>
<g>
	<path class="st1" d="M43.72,49.33c-1.36,0-2.27,0-2.72,0c0,5.47,0,9.11,0,10.93c-1.37,0-2.28,0-2.74,0c0-5.46,0-9.1,0-10.93
		c-1.36,0-2.27,0-2.72,0c0-0.68,0-1.25,0-1.7c0-0.46,0-0.8,0-1.02c4.1,0,6.83,0,8.19,0C43.72,47.82,43.72,48.73,43.72,49.33z"/>
	<path class="st1" d="M45.89,58.89c0-1.36,0-3.06,0-5.11c0-2.05,0-4.44,0-7.17c0.6,0,1.51,0,2.72,0c0,2.42,0,6.06,0,10.93
		c0.62,0,1.53,0,2.74,0c0-2.43,0-6.07,0-10.93c0.6,0,1.51,0,2.72,0c0,2.42,0,6.06,0,10.93c0.62,0,1.53,0,2.74,0
		c0-2.43,0-6.07,0-10.93c0.61,0,1.51,0,2.72,0c0,2.73,0,6.82,0,12.28c0,0.38-0.13,0.7-0.39,0.96c-0.27,0.27-0.59,0.41-0.96,0.41
		c-0.91,0-2.28,0-4.11,0c-0.37,0-0.69-0.14-0.96-0.41c-0.26-0.26-0.39-0.58-0.39-0.96c0,0.38-0.14,0.7-0.41,0.96
		c-0.26,0.27-0.58,0.41-0.96,0.41c-0.91,0-2.28,0-4.09,0c-0.38,0-0.7-0.14-0.96-0.41C46.03,59.59,45.89,59.27,45.89,58.89z"/>
	<path class="st1" d="M69.9,47.96c0,2.43,0,6.07,0,10.93c0,0.38-0.13,0.7-0.39,0.96c-0.27,0.27-0.59,0.41-0.96,0.41
		c-1.22,0-3.04,0-5.46,0c-0.38,0-0.7-0.14-0.96-0.41c-0.27-0.26-0.41-0.58-0.41-0.96c0-0.91,0-2.28,0-4.11c0-0.75,0-1.69,0-2.81
		c0-1.15,0-2.48,0-4c0-0.37,0.14-0.69,0.41-0.96c0.26-0.26,0.58-0.39,0.96-0.39c1.21,0,3.03,0,5.46,0c0.37,0,0.69,0.13,0.96,0.39
		C69.77,47.27,69.9,47.59,69.9,47.96z M64.43,57.53c0.62,0,1.53,0,2.74,0c0-0.12,0-0.3,0-0.54c0-1.7,0-4.26,0-7.67
		c-0.61,0-1.52,0-2.74,0c0,0.91,0,2.28,0,4.09C64.43,54.34,64.43,55.71,64.43,57.53z"/>
	<path class="st1" d="M90.61,47.96c0,1.22,0,3.04,0,5.46c0,0.38-0.13,0.71-0.39,0.98c-0.27,0.26-0.59,0.39-0.96,0.39
		c-0.91,0-2.28,0-4.11,0c0,1.21,0,3.03,0,5.46c-0.61,0-1.51,0-2.72,0c0-0.6,0-1.36,0-2.28c0-0.9,0-1.96,0-3.19c0-0.6,0-1.51,0-2.72
		c0-0.62,0-1.53,0-2.74c0-0.61,0-1.51,0-2.72c0.6,0,1.51,0,2.72,0c0.91,0,2.28,0,4.11,0c0.37,0,0.69,0.13,0.96,0.39
		C90.48,47.27,90.61,47.59,90.61,47.96z M85.15,52.07c0.62,0,1.53,0,2.74,0c0-0.11,0-0.27,0-0.48c0-0.51,0-1.26,0-2.26
		c-0.61,0-1.52,0-2.74,0C85.15,49.94,85.15,50.85,85.15,52.07z"/>
	<path class="st1" d="M100.97,57.53c0,1.36,0,2.27,0,2.72c-2.73,0-4.55,0-5.46,0c-1.01,0-1.69,0-2.04,0c-0.35,0-0.57,0-0.69,0
		c0-3.42,0-6.26,0-8.54c0-2.27,0-3.97,0-5.11c1.37,0,2.28,0,2.72,0c0,5.46,0,9.1,0,10.93C97.94,57.53,99.76,57.53,100.97,57.53z"/>
	<path class="st1" d="M111.32,60.26c-0.61,0-1.51,0-2.72,0c0-1.21,0-3.03,0-5.46c-0.61,0-1.52,0-2.74,0c0,1.21,0,3.03,0,5.46
		c-0.61,0-1.51,0-2.72,0c0-1.02,0-2.57,0-4.63c0-0.85,0-1.91,0-3.19c0-1.28,0-2.78,0-4.48c0-0.37,0.14-0.69,0.41-0.96
		c0.26-0.26,0.58-0.39,0.96-0.39c1.21,0,3.03,0,5.46,0c0.37,0,0.69,0.13,0.96,0.39c0.26,0.27,0.39,0.59,0.39,0.96
		C111.32,50.7,111.32,54.8,111.32,60.26z M108.6,52.07c0-0.11,0-0.27,0-0.48c0-0.51,0-1.26,0-2.26c-0.61,0-1.52,0-2.74,0
		c0,0.6,0,1.52,0,2.74C106.48,52.07,107.39,52.07,108.6,52.07z"/>
	<path class="st1" d="M123.35,46.61c-1.67,3.33-2.91,5.83-3.74,7.5c0,3.07,0,5.12,0,6.15c-1.37,0-2.28,0-2.74,0
		c0-3.07,0-5.12,0-6.15c-1.88-3.75-3.12-6.25-3.74-7.5c1.53,0,2.55,0,3.06,0c1.02,2.21,1.71,3.69,2.06,4.43
		c1.02-2.21,1.71-3.69,2.06-4.43C121.65,46.61,122.67,46.61,123.35,46.61z"/>
	<path class="st1" d="M127.85,49.33c0,1.21,0,2.12,0,2.74c1.83,0,3.2,0,4.11,0c0,1.21,0,2.12,0,2.72c-1.83,0-3.2,0-4.11,0
		c0,1.21,0,2.12,0,2.74c2.43,0,4.25,0,5.46,0c0,1.21,0,2.12,0,2.72c-2.42,0-4.24,0-5.46,0c-1.21,0-2.12,0-2.72,0
		c0-0.6,0-1.14,0-1.59c0-0.46,0-0.83,0-1.13c0-1.37,0-2.28,0-2.74c0-1.37,0-2.28,0-2.72c0-1.37,0-2.28,0-2.74c0-1.36,0-2.27,0-2.72
		c1.37,0,2.28,0,2.72,0c2.74,0,4.56,0,5.46,0c0,1.36,0,2.27,0,2.72C130.9,49.33,129.07,49.33,127.85,49.33z"/>
	<path class="st1" d="M142.32,53.42c0.37,0,0.69,0.14,0.96,0.41c0.26,0.26,0.39,0.58,0.39,0.96c0,1.21,0,3.03,0,5.46
		c-0.61,0-1.51,0-2.72,0c0-1.21,0-3.03,0-5.46c-0.61,0-1.52,0-2.74,0c0,1.21,0,3.03,0,5.46c-0.61,0-1.51,0-2.72,0
		c0-1.21,0-3.03,0-5.46c0-0.6,0-1.51,0-2.72c0-0.6,0-1.36,0-2.28c0-0.91,0-1.97,0-3.19c0.6,0,1.51,0,2.72,0c0.91,0,2.28,0,4.11,0
		c0.37,0,0.69,0.13,0.96,0.39c0.26,0.27,0.39,0.59,0.39,0.96c0,0.91,0,2.28,0,4.11c0,0.37-0.13,0.69-0.39,0.96
		C143.01,53.29,142.69,53.42,142.32,53.42z M140.95,52.07c0-0.11,0-0.27,0-0.48c0-0.51,0-1.26,0-2.26c-0.61,0-1.52,0-2.74,0
		c0,0.6,0,1.52,0,2.74C138.83,52.07,139.74,52.07,140.95,52.07z"/>
	<path class="st1" d="M151.31,50.7c0-0.31,0-0.77,0-1.37c-0.61,0-1.52,0-2.74,0c0,0.6,0,1.52,0,2.74c0.91,0,2.28,0,4.11,0
		c0.37,0,0.69,0.13,0.96,0.39c0.26,0.27,0.39,0.59,0.39,0.96c0,1.22,0,3.04,0,5.46c0,0.38-0.13,0.7-0.39,0.96
		c-0.27,0.27-0.59,0.41-0.96,0.41c-1.22,0-3.04,0-5.46,0c-0.38,0-0.7-0.14-0.96-0.41c-0.27-0.26-0.41-0.58-0.41-0.96
		c0-0.6,0-1.51,0-2.72c0.6,0,1.51,0,2.72,0c0,0.3,0,0.75,0,1.37c0.62,0,1.53,0,2.74,0c0-0.62,0-1.53,0-2.74c-0.91,0-2.28,0-4.09,0
		c-0.38,0-0.7-0.13-0.96-0.39c-0.27-0.27-0.41-0.6-0.41-0.98c0-0.61,0-1.36,0-2.28c0-0.91,0-1.97,0-3.19c0-0.37,0.14-0.69,0.41-0.96
		c0.26-0.26,0.58-0.39,0.96-0.39c1.21,0,3.03,0,5.46,0c0.37,0,0.69,0.13,0.96,0.39c0.26,0.27,0.39,0.59,0.39,0.96
		c0,0.62,0,1.53,0,2.74C153.42,50.7,152.52,50.7,151.31,50.7z"/>
</g>
</svg>
