{
    "asset" : {
        "generator" : "Khronos glTF Blender I/O v0.9.36",
        "version" : "2.0"
    },
    "scene" : 0,
    "scenes" : [
        {
            "name" : "Scene",
            "nodes" : [
                0,
                1,
                2
            ]
        }
    ],
    "nodes" : [
        {
            "name" : "Light",
            "rotation" : [
                0.16907575726509094,
                0.7558803558349609,
                -0.27217137813568115,
                0.570947527885437
            ],
            "translation" : [
                4.076245307922363,
                5.903861999511719,
                -1.0054539442062378
            ]
        },
        {
            "name" : "Camera",
            "rotation" : [
                0.483536034822464,
                0.33687159419059753,
                -0.20870360732078552,
                0.7804827094078064
            ],
            "translation" : [
                7.358891487121582,
                4.958309173583984,
                6.925790786743164
            ]
        },
        {
            "mesh" : 0,
            "name" : "Cube.002",
            "scale" : [
                -2.987584114074707,
                -2.987584114074707,
                -2.987584114074707
            ],
            "translation" : [
                1.5075730085372925,
                3.5274553298950195,
                0
            ]
        }
    ],
    "meshes" : [
        {
            "name" : "Cube.003",
            "primitives" : [
                {
                    "attributes" : {
                        "POSITION" : 0,
                        "NORMAL" : 1,
                        "TEXCOORD_0" : 2
                    },
                    "indices" : 3
                }
            ]
        }
    ],
    "accessors" : [
        {
            "bufferView" : 0,
            "componentType" : 5126,
            "count" : 17286,
            "max" : [
                1.7521910667419434,
                1.1019424200057983,
                -0.7335367202758789
            ],
            "min" : [
                -0.7467624545097351,
                -1.0000407695770264,
                -1.0810421705245972
            ],
            "type" : "VEC3"
        },
        {
            "bufferView" : 1,
            "componentType" : 5126,
            "count" : 17286,
            "type" : "VEC3"
        },
        {
            "bufferView" : 2,
            "componentType" : 5126,
            "count" : 17286,
            "type" : "VEC2"
        },
        {
            "bufferView" : 3,
            "componentType" : 5123,
            "count" : 34074,
            "type" : "SCALAR"
        }
    ],
    "bufferViews" : [
        {
            "buffer" : 0,
            "byteLength" : 207432,
            "byteOffset" : 0
        },
        {
            "buffer" : 0,
            "byteLength" : 207432,
            "byteOffset" : 207432
        },
        {
            "buffer" : 0,
            "byteLength" : 138288,
            "byteOffset" : 414864
        },
        {
            "buffer" : 0,
            "byteLength" : 68148,
            "byteOffset" : 553152
        }
    ],
    "buffers" : [
        {
            "byteLength" : 621300,
            "uri" : "data:application/octet-stream;base64,"
        }
    ]
}
