{
    "asset" : {
        "generator" : "Khronos glTF Blender I/O v0.9.36",
        "version" : "2.0"
    },
    "extensionsUsed" : [
        "KHR_materials_unlit"
    ],
    "extensionsRequired" : [
        "KHR_materials_unlit"
    ],
    "scene" : 0,
    "scenes" : [
        {
            "name" : "Scene",
            "nodes" : [
                0
            ]
        }
    ],
    "nodes" : [
        {
            "mesh" : 0,
            "name" : "Cube.008",
            "rotation" : [
                0,
                -0.7057188153266907,
                0,
                0.7084920406341553
            ],
            "translation" : [
                7.632045745849609,
                0.8328707814216614,
                -3.093838691711426
            ]
        }
    ],
    "materials" : [
        {
            "doubleSided" : true,
            "extensions" : {
                "KHR_materials_unlit" : {}
            },
            "name" : "Material.008",
            "pbrMetallicRoughness" : {
                "baseColorFactor" : [
                    0.800000011920929,
                    0.800000011920929,
                    0.800000011920929,
                    1
                ]
            }
        },
        {
            "doubleSided" : true,
            "extensions" : {
                "KHR_materials_unlit" : {}
            },
            "name" : "Material.001",
            "pbrMetallicRoughness" : {
                "baseColorFactor" : [
                    0.800000011920929,
                    0.800000011920929,
                    0.800000011920929,
                    1
                ]
            }
        },
        {
            "doubleSided" : true,
            "extensions" : {
                "KHR_materials_unlit" : {}
            },
            "name" : "Material.010",
            "pbrMetallicRoughness" : {
                "baseColorFactor" : [
                    0.800000011920929,
                    0.800000011920929,
                    0.800000011920929,
                    1
                ]
            }
        },
        {
            "doubleSided" : true,
            "extensions" : {
                "KHR_materials_unlit" : {}
            },
            "name" : "Material.011",
            "pbrMetallicRoughness" : {
                "baseColorFactor" : [
                    0.800000011920929,
                    0.800000011920929,
                    0.800000011920929,
                    1
                ]
            }
        },
        {
            "doubleSided" : true,
            "extensions" : {
                "KHR_materials_unlit" : {}
            },
            "name" : "Material.012",
            "pbrMetallicRoughness" : {
                "baseColorFactor" : [
                    0.800000011920929,
                    0.800000011920929,
                    0.800000011920929,
                    1
                ]
            }
        },
        {
            "doubleSided" : true,
            "extensions" : {
                "KHR_materials_unlit" : {}
            },
            "name" : "Material.002",
            "pbrMetallicRoughness" : {
                "baseColorFactor" : [
                    0.800000011920929,
                    0.800000011920929,
                    0.800000011920929,
                    1
                ]
            }
        },
        {
            "doubleSided" : true,
            "extensions" : {
                "KHR_materials_unlit" : {}
            },
            "name" : "Material",
            "pbrMetallicRoughness" : {
                "baseColorFactor" : [
                    0.800000011920929,
                    0.800000011920929,
                    0.800000011920929,
                    1
                ]
            }
        },
        {
            "doubleSided" : true,
            "extensions" : {
                "KHR_materials_unlit" : {}
            },
            "name" : "Material.009",
            "pbrMetallicRoughness" : {
                "baseColorFactor" : [
                    0.800000011920929,
                    0.800000011920929,
                    0.800000011920929,
                    1
                ]
            }
        },
        {
            "doubleSided" : true,
            "extensions" : {
                "KHR_materials_unlit" : {}
            },
            "name" : "Material.006",
            "pbrMetallicRoughness" : {
                "baseColorFactor" : [
                    0.800000011920929,
                    0.800000011920929,
                    0.800000011920929,
                    1
                ]
            }
        },
        {
            "doubleSided" : true,
            "extensions" : {
                "KHR_materials_unlit" : {}
            },
            "name" : "Material.004",
            "pbrMetallicRoughness" : {
                "baseColorFactor" : [
                    0.800000011920929,
                    0.800000011920929,
                    0.800000011920929,
                    1
                ]
            }
        },
        {
            "doubleSided" : true,
            "extensions" : {
                "KHR_materials_unlit" : {}
            },
            "name" : "Material.003",
            "pbrMetallicRoughness" : {
                "baseColorFactor" : [
                    0.800000011920929,
                    0.800000011920929,
                    0.800000011920929,
                    1
                ]
            }
        },
        {
            "doubleSided" : true,
            "extensions" : {
                "KHR_materials_unlit" : {}
            },
            "name" : "Material.005",
            "pbrMetallicRoughness" : {
                "baseColorFactor" : [
                    0.800000011920929,
                    0.800000011920929,
                    0.800000011920929,
                    1
                ]
            }
        }
    ],
    "meshes" : [
        {
            "name" : "Cube.008",
            "primitives" : [
                {
                    "attributes" : {
                        "POSITION" : 0,
                        "NORMAL" : 1,
                        "TEXCOORD_0" : 2
                    },
                    "indices" : 3,
                    "material" : 0
                },
                {
                    "attributes" : {
                        "POSITION" : 4,
                        "NORMAL" : 5,
                        "TEXCOORD_0" : 6
                    },
                    "indices" : 7,
                    "material" : 1
                },
                {
                    "attributes" : {
                        "POSITION" : 8,
                        "NORMAL" : 9,
                        "TEXCOORD_0" : 10
                    },
                    "indices" : 11,
                    "material" : 2
                },
                {
                    "attributes" : {
                        "POSITION" : 12,
                        "NORMAL" : 13,
                        "TEXCOORD_0" : 14
                    },
                    "indices" : 15,
                    "material" : 3
                },
                {
                    "attributes" : {
                        "POSITION" : 16,
                        "NORMAL" : 17,
                        "TEXCOORD_0" : 18
                    },
                    "indices" : 19,
                    "material" : 4
                },
                {
                    "attributes" : {
                        "POSITION" : 20,
                        "NORMAL" : 21,
                        "TEXCOORD_0" : 22
                    },
                    "indices" : 23,
                    "material" : 5
                },
                {
                    "attributes" : {
                        "POSITION" : 24,
                        "NORMAL" : 25,
                        "TEXCOORD_0" : 26
                    },
                    "indices" : 27,
                    "material" : 6
                },
                {
                    "attributes" : {
                        "POSITION" : 28,
                        "NORMAL" : 29,
                        "TEXCOORD_0" : 30
                    },
                    "indices" : 31,
                    "material" : 7
                },
                {
                    "attributes" : {
                        "POSITION" : 32,
                        "NORMAL" : 33,
                        "TEXCOORD_0" : 34
                    },
                    "indices" : 35,
                    "material" : 8
                },
                {
                    "attributes" : {
                        "POSITION" : 36,
                        "NORMAL" : 37,
                        "TEXCOORD_0" : 38
                    },
                    "indices" : 39,
                    "material" : 9
                },
                {
                    "attributes" : {
                        "POSITION" : 40,
                        "NORMAL" : 41,
                        "TEXCOORD_0" : 42
                    },
                    "indices" : 43,
                    "material" : 10
                },
                {
                    "attributes" : {
                        "POSITION" : 44,
                        "NORMAL" : 45,
                        "TEXCOORD_0" : 46
                    },
                    "indices" : 11,
                    "material" : 11
                }
            ]
        }
    ],
    "accessors" : [
        {
            "bufferView" : 0,
            "componentType" : 5126,
            "count" : 83,
            "max" : [
                1,
                -0.6635538339614868,
                3.5800602436065674
            ],
            "min" : [
                -1,
                -1.0163308382034302,
                -2.06150221824646
            ],
            "type" : "VEC3"
        },
        {
            "bufferView" : 1,
            "componentType" : 5126,
            "count" : 83,
            "type" : "VEC3"
        },
        {
            "bufferView" : 2,
            "componentType" : 5126,
            "count" : 83,
            "type" : "VEC2"
        },
        {
            "bufferView" : 3,
            "componentType" : 5123,
            "count" : 144,
            "type" : "SCALAR"
        },
        {
            "bufferView" : 4,
            "componentType" : 5126,
            "count" : 66,
            "max" : [
                5.12858772277832,
                -0.6635538339614868,
                5.692183017730713
            ],
            "min" : [
                2.071560859680176,
                -1,
                2.663365602493286
            ],
            "type" : "VEC3"
        },
        {
            "bufferView" : 5,
            "componentType" : 5126,
            "count" : 66,
            "type" : "VEC3"
        },
        {
            "bufferView" : 6,
            "componentType" : 5126,
            "count" : 66,
            "type" : "VEC2"
        },
        {
            "bufferView" : 7,
            "componentType" : 5123,
            "count" : 108,
            "type" : "SCALAR"
        },
        {
            "bufferView" : 8,
            "componentType" : 5126,
            "count" : 88,
            "max" : [
                5.635238170623779,
                -0.6635538339614868,
                2.660740852355957
            ],
            "min" : [
                2.0492703914642334,
                -1,
                -0.37349069118499756
            ],
            "type" : "VEC3"
        },
        {
            "bufferView" : 9,
            "componentType" : 5126,
            "count" : 88,
            "type" : "VEC3"
        },
        {
            "bufferView" : 10,
            "componentType" : 5126,
            "count" : 88,
            "type" : "VEC2"
        },
        {
            "bufferView" : 11,
            "componentType" : 5123,
            "count" : 132,
            "type" : "SCALAR"
        },
        {
            "bufferView" : 12,
            "componentType" : 5126,
            "count" : 88,
            "max" : [
                9.73314380645752,
                -0.6635538339614868,
                5.562466144561768
            ],
            "min" : [
                6.131437301635742,
                -1,
                2.5380117893218994
            ],
            "type" : "VEC3"
        },
        {
            "bufferView" : 13,
            "componentType" : 5126,
            "count" : 88,
            "type" : "VEC3"
        },
        {
            "bufferView" : 14,
            "componentType" : 5126,
            "count" : 88,
            "type" : "VEC2"
        },
        {
            "bufferView" : 15,
            "componentType" : 5123,
            "count" : 132,
            "type" : "SCALAR"
        },
        {
            "bufferView" : 16,
            "componentType" : 5126,
            "count" : 72,
            "max" : [
                11.203874588012695,
                -0.6635538339614868,
                9.643270492553711
            ],
            "min" : [
                8.146848678588867,
                -1,
                6.61445426940918
            ],
            "type" : "VEC3"
        },
        {
            "bufferView" : 17,
            "componentType" : 5126,
            "count" : 72,
            "type" : "VEC3"
        },
        {
            "bufferView" : 18,
            "componentType" : 5126,
            "count" : 72,
            "type" : "VEC2"
        },
        {
            "bufferView" : 19,
            "componentType" : 5123,
            "count" : 108,
            "type" : "SCALAR"
        },
        {
            "bufferView" : 20,
            "componentType" : 5126,
            "count" : 86,
            "max" : [
                8.690258979797363,
                -0.6635538339614868,
                12.10188102722168
            ],
            "min" : [
                5.663026809692383,
                -1,
                8.513322830200195
            ],
            "type" : "VEC3"
        },
        {
            "bufferView" : 21,
            "componentType" : 5126,
            "count" : 86,
            "type" : "VEC3"
        },
        {
            "bufferView" : 22,
            "componentType" : 5126,
            "count" : 86,
            "type" : "VEC2"
        },
        {
            "bufferView" : 23,
            "componentType" : 5123,
            "count" : 132,
            "type" : "SCALAR"
        },
        {
            "bufferView" : 24,
            "componentType" : 5126,
            "count" : 94,
            "max" : [
                6.6478376388549805,
                -0.6635538339614868,
                8.651941299438477
            ],
            "min" : [
                0.99847412109375,
                -1.0163308382034302,
                6.640206336975098
            ],
            "type" : "VEC3"
        },
        {
            "bufferView" : 25,
            "componentType" : 5126,
            "count" : 94,
            "type" : "VEC3"
        },
        {
            "bufferView" : 26,
            "componentType" : 5126,
            "count" : 94,
            "type" : "VEC2"
        },
        {
            "bufferView" : 27,
            "componentType" : 5123,
            "count" : 144,
            "type" : "SCALAR"
        },
        {
            "bufferView" : 28,
            "componentType" : 5126,
            "count" : 94,
            "max" : [
                1.2399206161499023,
                -0.6635538339614868,
                6.6086320877075195
            ],
            "min" : [
                -4.405768394470215,
                -1.0163308382034302,
                4.607372283935547
            ],
            "type" : "VEC3"
        },
        {
            "bufferView" : 29,
            "componentType" : 5126,
            "count" : 94,
            "type" : "VEC3"
        },
        {
            "bufferView" : 30,
            "componentType" : 5126,
            "count" : 94,
            "type" : "VEC2"
        },
        {
            "bufferView" : 31,
            "componentType" : 5123,
            "count" : 144,
            "type" : "SCALAR"
        },
        {
            "bufferView" : 32,
            "componentType" : 5126,
            "count" : 72,
            "max" : [
                0.42730045318603516,
                -0.6635538339614868,
                10.6500244140625
            ],
            "min" : [
                -2.601541519165039,
                -1,
                7.604853630065918
            ],
            "type" : "VEC3"
        },
        {
            "bufferView" : 33,
            "componentType" : 5126,
            "count" : 72,
            "type" : "VEC3"
        },
        {
            "bufferView" : 34,
            "componentType" : 5126,
            "count" : 72,
            "type" : "VEC2"
        },
        {
            "bufferView" : 35,
            "componentType" : 5123,
            "count" : 108,
            "type" : "SCALAR"
        },
        {
            "bufferView" : 36,
            "componentType" : 5126,
            "count" : 96,
            "max" : [
                1.1362018585205078,
                -0.6635538339614868,
                13.54425048828125
            ],
            "min" : [
                -4.505358695983887,
                -1.0163308382034302,
                11.539155960083008
            ],
            "type" : "VEC3"
        },
        {
            "bufferView" : 37,
            "componentType" : 5126,
            "count" : 96,
            "type" : "VEC3"
        },
        {
            "bufferView" : 38,
            "componentType" : 5126,
            "count" : 96,
            "type" : "VEC2"
        },
        {
            "bufferView" : 39,
            "componentType" : 5123,
            "count" : 144,
            "type" : "SCALAR"
        },
        {
            "bufferView" : 40,
            "componentType" : 5126,
            "count" : 96,
            "max" : [
                4.678834915161133,
                -0.6635538339614868,
                15.24051284790039
            ],
            "min" : [
                2.676311492919922,
                -1.0163308382034302,
                9.592937469482422
            ],
            "type" : "VEC3"
        },
        {
            "bufferView" : 41,
            "componentType" : 5126,
            "count" : 96,
            "type" : "VEC3"
        },
        {
            "bufferView" : 42,
            "componentType" : 5126,
            "count" : 96,
            "type" : "VEC2"
        },
        {
            "bufferView" : 43,
            "componentType" : 5123,
            "count" : 144,
            "type" : "SCALAR"
        },
        {
            "bufferView" : 44,
            "componentType" : 5126,
            "count" : 88,
            "max" : [
                2.942058563232422,
                -0.6635538339614868,
                16.56583595275879
            ],
            "min" : [
                -0.6439075469970703,
                -1,
                13.531604766845703
            ],
            "type" : "VEC3"
        },
        {
            "bufferView" : 45,
            "componentType" : 5126,
            "count" : 88,
            "type" : "VEC3"
        },
        {
            "bufferView" : 46,
            "componentType" : 5126,
            "count" : 88,
            "type" : "VEC2"
        }
    ],
    "bufferViews" : [
        {
            "buffer" : 0,
            "byteLength" : 996,
            "byteOffset" : 0
        },
        {
            "buffer" : 0,
            "byteLength" : 996,
            "byteOffset" : 996
        },
        {
            "buffer" : 0,
            "byteLength" : 664,
            "byteOffset" : 1992
        },
        {
            "buffer" : 0,
            "byteLength" : 288,
            "byteOffset" : 2656
        },
        {
            "buffer" : 0,
            "byteLength" : 792,
            "byteOffset" : 2944
        },
        {
            "buffer" : 0,
            "byteLength" : 792,
            "byteOffset" : 3736
        },
        {
            "buffer" : 0,
            "byteLength" : 528,
            "byteOffset" : 4528
        },
        {
            "buffer" : 0,
            "byteLength" : 216,
            "byteOffset" : 5056
        },
        {
            "buffer" : 0,
            "byteLength" : 1056,
            "byteOffset" : 5272
        },
        {
            "buffer" : 0,
            "byteLength" : 1056,
            "byteOffset" : 6328
        },
        {
            "buffer" : 0,
            "byteLength" : 704,
            "byteOffset" : 7384
        },
        {
            "buffer" : 0,
            "byteLength" : 264,
            "byteOffset" : 8088
        },
        {
            "buffer" : 0,
            "byteLength" : 1056,
            "byteOffset" : 8352
        },
        {
            "buffer" : 0,
            "byteLength" : 1056,
            "byteOffset" : 9408
        },
        {
            "buffer" : 0,
            "byteLength" : 704,
            "byteOffset" : 10464
        },
        {
            "buffer" : 0,
            "byteLength" : 264,
            "byteOffset" : 11168
        },
        {
            "buffer" : 0,
            "byteLength" : 864,
            "byteOffset" : 11432
        },
        {
            "buffer" : 0,
            "byteLength" : 864,
            "byteOffset" : 12296
        },
        {
            "buffer" : 0,
            "byteLength" : 576,
            "byteOffset" : 13160
        },
        {
            "buffer" : 0,
            "byteLength" : 216,
            "byteOffset" : 13736
        },
        {
            "buffer" : 0,
            "byteLength" : 1032,
            "byteOffset" : 13952
        },
        {
            "buffer" : 0,
            "byteLength" : 1032,
            "byteOffset" : 14984
        },
        {
            "buffer" : 0,
            "byteLength" : 688,
            "byteOffset" : 16016
        },
        {
            "buffer" : 0,
            "byteLength" : 264,
            "byteOffset" : 16704
        },
        {
            "buffer" : 0,
            "byteLength" : 1128,
            "byteOffset" : 16968
        },
        {
            "buffer" : 0,
            "byteLength" : 1128,
            "byteOffset" : 18096
        },
        {
            "buffer" : 0,
            "byteLength" : 752,
            "byteOffset" : 19224
        },
        {
            "buffer" : 0,
            "byteLength" : 288,
            "byteOffset" : 19976
        },
        {
            "buffer" : 0,
            "byteLength" : 1128,
            "byteOffset" : 20264
        },
        {
            "buffer" : 0,
            "byteLength" : 1128,
            "byteOffset" : 21392
        },
        {
            "buffer" : 0,
            "byteLength" : 752,
            "byteOffset" : 22520
        },
        {
            "buffer" : 0,
            "byteLength" : 288,
            "byteOffset" : 23272
        },
        {
            "buffer" : 0,
            "byteLength" : 864,
            "byteOffset" : 23560
        },
        {
            "buffer" : 0,
            "byteLength" : 864,
            "byteOffset" : 24424
        },
        {
            "buffer" : 0,
            "byteLength" : 576,
            "byteOffset" : 25288
        },
        {
            "buffer" : 0,
            "byteLength" : 216,
            "byteOffset" : 25864
        },
        {
            "buffer" : 0,
            "byteLength" : 1152,
            "byteOffset" : 26080
        },
        {
            "buffer" : 0,
            "byteLength" : 1152,
            "byteOffset" : 27232
        },
        {
            "buffer" : 0,
            "byteLength" : 768,
            "byteOffset" : 28384
        },
        {
            "buffer" : 0,
            "byteLength" : 288,
            "byteOffset" : 29152
        },
        {
            "buffer" : 0,
            "byteLength" : 1152,
            "byteOffset" : 29440
        },
        {
            "buffer" : 0,
            "byteLength" : 1152,
            "byteOffset" : 30592
        },
        {
            "buffer" : 0,
            "byteLength" : 768,
            "byteOffset" : 31744
        },
        {
            "buffer" : 0,
            "byteLength" : 288,
            "byteOffset" : 32512
        },
        {
            "buffer" : 0,
            "byteLength" : 1056,
            "byteOffset" : 32800
        },
        {
            "buffer" : 0,
            "byteLength" : 1056,
            "byteOffset" : 33856
        },
        {
            "buffer" : 0,
            "byteLength" : 704,
            "byteOffset" : 34912
        }
    ],
    "buffers" : [
        {
            "byteLength" : 35616,
            "uri" : "data:application/octet-stream;base64,"
        }
    ]
}
