<?xml version="1.0" encoding="utf-8"?>
<!-- Generator: Adobe Illustrator 23.0.1, SVG Export Plug-In . SVG Version: 6.00 Build 0)  -->
<svg version="1.1" id="Layer_1" xmlns="http://www.w3.org/2000/svg" xmlns:xlink="http://www.w3.org/1999/xlink" x="0px" y="0px"
	 viewBox="0 0 192 108" style="enable-background:new 0 0 192 108;" xml:space="preserve">
<style type="text/css">
	.st0{fill:#FFFFFF;}
</style>
<g>
	<path class="st0" d="M65.78,36.3c0,1.01,0,2.51,0,4.51c0,0.32-0.11,0.59-0.32,0.81c-0.22,0.21-0.49,0.32-0.79,0.32
		c-0.75,0-1.88,0-3.39,0c0,1,0,2.5,0,4.51c-0.5,0-1.25,0-2.25,0c0-0.5,0-1.13,0-1.88c0-0.74,0-1.62,0-2.63c0-0.5,0-1.25,0-2.25
		c0-0.51,0-1.26,0-2.26c0-0.5,0-1.25,0-2.25c0.5,0,1.25,0,2.25,0c0.75,0,1.88,0,3.39,0c0.31,0,0.57,0.11,0.79,0.32
		C65.67,35.72,65.78,35.99,65.78,36.3z M61.27,39.69c0.51,0,1.26,0,2.26,0c0-0.09,0-0.22,0-0.4c0-0.42,0-1.04,0-1.86
		c-0.5,0-1.25,0-2.26,0C61.27,37.93,61.27,38.68,61.27,39.69z"/>
	<path class="st0" d="M72.43,40.8c0.31,0,0.57,0.11,0.79,0.34c0.21,0.21,0.32,0.48,0.32,0.79c0,1,0,2.5,0,4.51c-0.5,0-1.25,0-2.25,0
		c0-1,0-2.5,0-4.51c-0.5,0-1.25,0-2.26,0c0,1,0,2.5,0,4.51c-0.5,0-1.25,0-2.25,0c0-1,0-2.5,0-4.51c0-0.5,0-1.25,0-2.25
		c0-0.5,0-1.13,0-1.88c0-0.75,0-1.63,0-2.63c0.5,0,1.25,0,2.25,0c0.75,0,1.88,0,3.39,0c0.31,0,0.57,0.11,0.79,0.32
		c0.21,0.22,0.32,0.49,0.32,0.79c0,0.75,0,1.89,0,3.39c0,0.31-0.11,0.57-0.32,0.79C73,40.7,72.73,40.8,72.43,40.8z M71.29,39.69
		c0-0.09,0-0.22,0-0.4c0-0.42,0-1.04,0-1.86c-0.5,0-1.25,0-2.26,0c0,0.5,0,1.25,0,2.26C69.54,39.69,70.3,39.69,71.29,39.69z"/>
	<path class="st0" d="M81.31,36.3c0,2.01,0,5.01,0,9.02c0,0.32-0.11,0.58-0.32,0.79c-0.22,0.22-0.49,0.34-0.79,0.34
		c-1.01,0-2.51,0-4.51,0c-0.32,0-0.58-0.11-0.79-0.34c-0.22-0.21-0.34-0.48-0.34-0.79c0-0.75,0-1.88,0-3.39c0-0.62,0-1.4,0-2.32
		c0-0.95,0-2.05,0-3.3c0-0.31,0.11-0.57,0.34-0.79c0.21-0.21,0.48-0.32,0.79-0.32c1,0,2.5,0,4.51,0c0.31,0,0.57,0.11,0.79,0.32
		C81.2,35.72,81.31,35.99,81.31,36.3z M76.8,44.2c0.51,0,1.26,0,2.26,0c0-0.1,0-0.25,0-0.44c0-1.41,0-3.51,0-6.33
		c-0.5,0-1.25,0-2.26,0c0,0.75,0,1.88,0,3.38C76.8,41.56,76.8,42.69,76.8,44.2z"/>
	<path class="st0" d="M89.07,35.18c0,2.25,0,5.63,0,10.13c0,0.32-0.11,0.58-0.32,0.79c-0.22,0.22-0.49,0.34-0.79,0.34
		c-1.01,0-2.51,0-4.51,0c-0.32,0-0.58-0.11-0.79-0.34c-0.22-0.21-0.34-0.48-0.34-0.79c0-0.24,0-0.56,0-0.93c0-0.38,0-0.81,0-1.31
		c0.5,0,1.25,0,2.25,0c0,0.24,0,0.62,0,1.13c0.51,0,1.26,0,2.26,0c0-2.01,0-5.01,0-9.02C87.32,35.18,88.07,35.18,89.07,35.18z"/>
	<path class="st0" d="M92.33,37.43c0,1,0,1.75,0,2.26c1.51,0,2.64,0,3.39,0c0,1,0,1.75,0,2.25c-1.51,0-2.64,0-3.39,0
		c0,1,0,1.75,0,2.26c2.01,0,3.51,0,4.51,0c0,1,0,1.75,0,2.25c-2,0-3.5,0-4.51,0c-1,0-1.75,0-2.25,0c0-0.5,0-0.94,0-1.31
		c0-0.38,0-0.69,0-0.93c0-1.13,0-1.88,0-2.26c0-1.13,0-1.88,0-2.25c0-1.13,0-1.88,0-2.26c0-1.12,0-1.87,0-2.25c1.13,0,1.88,0,2.25,0
		c2.26,0,3.76,0,4.51,0c0,1.12,0,1.87,0,2.25C94.84,37.43,93.33,37.43,92.33,37.43z"/>
	<path class="st0" d="M102.35,38.56c0-0.25,0-0.63,0-1.13c-0.5,0-1.25,0-2.26,0c0,1.51,0,3.76,0,6.77c0.51,0,1.26,0,2.26,0
		c0-0.25,0-0.63,0-1.13c0.5,0,1.25,0,2.25,0c0,0.5,0,1.25,0,2.25c0,0.32-0.11,0.58-0.32,0.79c-0.22,0.22-0.49,0.34-0.79,0.34
		c-1.01,0-2.51,0-4.51,0c-0.32,0-0.58-0.11-0.79-0.34c-0.22-0.21-0.34-0.48-0.34-0.79c0-0.75,0-1.88,0-3.39c0-0.62,0-1.4,0-2.32
		c0-0.95,0-2.05,0-3.3c0-0.31,0.11-0.57,0.34-0.79c0.21-0.21,0.48-0.32,0.79-0.32c1,0,2.5,0,4.51,0c0.31,0,0.57,0.11,0.79,0.32
		c0.21,0.22,0.32,0.49,0.32,0.79c0,0.51,0,1.26,0,2.26C104.1,38.56,103.35,38.56,102.35,38.56z"/>
	<path class="st0" d="M112.36,37.43c-1.12,0-1.87,0-2.25,0c0,4.51,0,7.52,0,9.02c-1.13,0-1.88,0-2.26,0c0-4.5,0-7.51,0-9.02
		c-1.12,0-1.87,0-2.25,0c0-0.56,0-1.03,0-1.41c0-0.38,0-0.66,0-0.84c3.38,0,5.63,0,6.75,0C112.36,36.18,112.36,36.93,112.36,37.43z"
		/>
	<path class="st0" d="M126.77,40.8c0.31,0,0.57,0.11,0.79,0.34c0.21,0.21,0.32,0.48,0.32,0.79c0,0.75,0,1.88,0,3.38
		c0,0.32-0.11,0.58-0.32,0.79c-0.22,0.22-0.49,0.34-0.79,0.34c-0.75,0-1.88,0-3.39,0c-0.5,0-1.25,0-2.25,0c0-0.5,0-1.25,0-2.25
		c0-0.51,0-1.26,0-2.26c0-0.5,0-1.25,0-2.25c0-0.25,0-0.57,0-0.95c0-0.38,0-0.81,0-1.31c0-0.5,0-1.25,0-2.25c0.5,0,1.25,0,2.25,0
		c0.75,0,1.88,0,3.39,0c0.31,0,0.57,0.11,0.79,0.32c0.21,0.22,0.32,0.49,0.32,0.79c0,0.75,0,1.89,0,3.39c0,0.31-0.11,0.57-0.32,0.79
		C127.34,40.7,127.08,40.8,126.77,40.8z M123.38,39.69c0.51,0,1.26,0,2.26,0c0-0.09,0-0.22,0-0.4c0-0.42,0-1.04,0-1.86
		c-0.5,0-1.25,0-2.26,0C123.38,37.93,123.38,38.68,123.38,39.69z M123.38,44.2c0.51,0,1.26,0,2.26,0c0-0.09,0-0.22,0-0.4
		c0-0.42,0-1.04,0-1.86c-0.5,0-1.25,0-2.26,0C123.38,42.43,123.38,43.19,123.38,44.2z"/>
	<path class="st0" d="M137.03,35.18c-1.38,2.75-2.4,4.81-3.09,6.19c0,2.54,0,4.23,0,5.07c-1.13,0-1.88,0-2.26,0
		c0-2.54,0-4.23,0-5.07c-1.55-3.1-2.58-5.16-3.09-6.19c1.26,0,2.1,0,2.52,0c0.85,1.82,1.41,3.04,1.7,3.65
		c0.85-1.82,1.41-3.04,1.7-3.65C135.63,35.18,136.47,35.18,137.03,35.18z"/>
	<path class="st0" d="M37.11,59.94c0-0.39,0-0.97,0-1.73c-0.76,0-1.92,0-3.46,0c0,2.31,0,5.76,0,10.36c0.78,0,1.93,0,3.46,0
		c0-0.39,0-0.97,0-1.73c0.76,0,1.91,0,3.44,0c0,0.76,0,1.91,0,3.44c0,0.48-0.16,0.89-0.49,1.22C39.71,71.83,39.31,72,38.84,72
		c-1.54,0-3.84,0-6.9,0c-0.48,0-0.89-0.17-1.22-0.51c-0.34-0.33-0.51-0.73-0.51-1.22c0-1.15,0-2.88,0-5.19c0-0.95,0-2.14,0-3.55
		c0-1.45,0-3.13,0-5.05c0-0.47,0.17-0.87,0.51-1.22c0.33-0.33,0.73-0.49,1.22-0.49c1.53,0,3.83,0,6.9,0c0.47,0,0.87,0.16,1.22,0.49
		c0.33,0.34,0.49,0.75,0.49,1.22c0,0.78,0,1.93,0,3.46C39.78,59.94,38.64,59.94,37.11,59.94z"/>
	<path class="st0" d="M50.72,63.37c0.47,0,0.87,0.17,1.22,0.51c0.33,0.33,0.49,0.73,0.49,1.22c0,1.53,0,3.83,0,6.9
		c-0.76,0-1.91,0-3.44,0c0-1.53,0-3.83,0-6.9c-0.76,0-1.92,0-3.46,0c0,1.53,0,3.83,0,6.9c-0.76,0-1.91,0-3.44,0c0-1.53,0-3.83,0-6.9
		c0-0.76,0-1.91,0-3.44c0-0.76,0-1.72,0-2.88c0-1.15,0-2.49,0-4.02c0.76,0,1.91,0,3.44,0c1.15,0,2.88,0,5.19,0
		c0.47,0,0.87,0.16,1.22,0.49c0.33,0.34,0.49,0.75,0.49,1.22c0,1.15,0,2.88,0,5.19c0,0.47-0.16,0.87-0.49,1.22
		C51.59,63.21,51.19,63.37,50.72,63.37z M48.99,61.67c0-0.14,0-0.34,0-0.61c0-0.64,0-1.59,0-2.85c-0.76,0-1.92,0-3.46,0
		c0,0.76,0,1.92,0,3.46C46.31,61.67,47.46,61.67,48.99,61.67z"/>
	<path class="st0" d="M64.3,72c-0.76,0-1.91,0-3.44,0c0-1.53,0-3.83,0-6.9c-0.76,0-1.92,0-3.46,0c0,1.53,0,3.83,0,6.9
		c-0.76,0-1.91,0-3.44,0c0-1.29,0-3.24,0-5.85c0-1.08,0-2.42,0-4.02c0-1.62,0-3.51,0-5.66c0-0.47,0.17-0.87,0.51-1.22
		c0.33-0.33,0.73-0.49,1.22-0.49c1.53,0,3.83,0,6.9,0c0.47,0,0.87,0.16,1.22,0.49c0.33,0.34,0.49,0.75,0.49,1.22
		C64.3,59.94,64.3,65.11,64.3,72z M60.87,61.67c0-0.14,0-0.34,0-0.61c0-0.64,0-1.59,0-2.85c-0.76,0-1.92,0-3.46,0
		c0,0.76,0,1.92,0,3.46C58.19,61.67,59.34,61.67,60.87,61.67z"/>
	<path class="st0" d="M65.85,54.77c0.58,0,1.72,0,3.44,0c0,2.15,0,6.46,0,12.93c0,0.72,0,2.15,0,4.3c-0.56,0-1.71,0-3.44,0
		c0-1.43,0-3.58,0-6.45C65.85,62.68,65.85,59.09,65.85,54.77z"/>
	<path class="st0" d="M77.73,59.94c0-0.39,0-0.97,0-1.73c-0.76,0-1.92,0-3.46,0c0,2.31,0,5.76,0,10.36c0.78,0,1.93,0,3.46,0
		c0-0.78,0-1.93,0-3.46c-0.39,0-0.97,0-1.73,0c0-0.76,0-1.91,0-3.44c1.15,0,2.88,0,5.17,0c0,0.76,0,1.91,0,3.44
		c0,1.15,0,2.88,0,5.17c0,0.48-0.16,0.89-0.49,1.22C80.33,71.83,79.93,72,79.46,72c-1.54,0-3.84,0-6.9,0
		c-0.48,0-0.89-0.17-1.22-0.51c-0.34-0.33-0.51-0.73-0.51-1.22c0-1.15,0-2.88,0-5.19c0-0.95,0-2.14,0-3.55c0-1.45,0-3.13,0-5.05
		c0-0.47,0.17-0.87,0.51-1.22c0.33-0.33,0.73-0.49,1.22-0.49c1.53,0,3.83,0,6.9,0c0.47,0,0.87,0.16,1.22,0.49
		c0.33,0.34,0.49,0.75,0.49,1.22c0,0.78,0,1.93,0,3.46C80.4,59.94,79.26,59.94,77.73,59.94z"/>
	<path class="st0" d="M104.92,54.77c0,3.06,0,5.35,0,6.9c0,1.53,0,2.67,0,3.44c0,3.07,0,5.37,0,6.9c-1.53,0-2.67,0-3.44,0
		c0-3.07,0-5.37,0-6.9c-1.53,0-2.68,0-3.46,0c0,3.07,0,5.37,0,6.9c-1.53,0-2.67,0-3.44,0c0-1.71,0-3.15,0-4.3c0-1.15,0-2.02,0-2.6
		c0-1.73,0-2.88,0-3.44c0-3.46,0-5.76,0-6.9c1.73,0,2.88,0,3.44,0c0,3.45,0,5.74,0,6.9c1.73,0,2.88,0,3.46,0c0-3.46,0-5.76,0-6.9
		C103.01,54.77,104.16,54.77,104.92,54.77z"/>
	<path class="st0" d="M116.8,54.77c0,3.45,0,8.61,0,15.5c0,0.48-0.16,0.89-0.49,1.22c-0.34,0.34-0.75,0.51-1.22,0.51
		c-1.54,0-3.84,0-6.9,0c-0.48,0-0.89-0.17-1.22-0.51c-0.34-0.33-0.51-0.73-0.51-1.22c0-1.71,0-3.87,0-6.45c0-2.59,0-5.6,0-9.05
		c0.76,0,1.91,0,3.44,0c0,3.06,0,7.65,0,13.79c0.78,0,1.93,0,3.46,0c0-3.07,0-7.67,0-13.79C114.13,54.77,115.28,54.77,116.8,54.77z"
		/>
	<path class="st0" d="M125.25,59.94c0-0.39,0-0.97,0-1.73c-0.76,0-1.92,0-3.46,0c0,2.31,0,5.76,0,10.36c0.78,0,1.93,0,3.46,0
		c0-0.78,0-1.93,0-3.46c-0.39,0-0.97,0-1.73,0c0-0.76,0-1.91,0-3.44c1.15,0,2.88,0,5.17,0c0,0.76,0,1.91,0,3.44
		c0,1.15,0,2.88,0,5.17c0,0.48-0.16,0.89-0.49,1.22c-0.34,0.34-0.75,0.51-1.22,0.51c-1.54,0-3.84,0-6.9,0
		c-0.48,0-0.89-0.17-1.22-0.51c-0.34-0.33-0.51-0.73-0.51-1.22c0-1.15,0-2.88,0-5.19c0-0.95,0-2.14,0-3.55c0-1.45,0-3.13,0-5.05
		c0-0.47,0.17-0.87,0.51-1.22c0.33-0.33,0.73-0.49,1.22-0.49c1.53,0,3.83,0,6.9,0c0.47,0,0.87,0.16,1.22,0.49
		c0.33,0.34,0.49,0.75,0.49,1.22c0,0.78,0,1.93,0,3.46C127.92,59.94,126.77,59.94,125.25,59.94z"/>
	<path class="st0" d="M140.56,54.77c0,3.06,0,5.35,0,6.9c0,1.53,0,2.67,0,3.44c0,3.07,0,5.37,0,6.9c-1.53,0-2.67,0-3.44,0
		c0-3.07,0-5.37,0-6.9c-1.53,0-2.68,0-3.46,0c0,3.07,0,5.37,0,6.9c-1.53,0-2.67,0-3.44,0c0-1.71,0-3.15,0-4.3c0-1.15,0-2.02,0-2.6
		c0-1.73,0-2.88,0-3.44c0-3.46,0-5.76,0-6.9c1.73,0,2.88,0,3.44,0c0,3.45,0,5.74,0,6.9c1.73,0,2.88,0,3.46,0c0-3.46,0-5.76,0-6.9
		C138.65,54.77,139.8,54.77,140.56,54.77z"/>
	<path class="st0" d="M145.54,58.21c0,1.53,0,2.68,0,3.46c2.31,0,4.04,0,5.19,0c0,1.53,0,2.67,0,3.44c-2.31,0-4.04,0-5.19,0
		c0,1.53,0,2.68,0,3.46c3.07,0,5.37,0,6.9,0c0,1.53,0,2.67,0,3.44c-3.06,0-5.35,0-6.9,0c-1.53,0-2.67,0-3.44,0c0-0.76,0-1.43,0-2.01
		s0-1.05,0-1.43c0-1.73,0-2.88,0-3.46c0-1.73,0-2.88,0-3.44c0-1.73,0-2.88,0-3.46c0-1.71,0-2.86,0-3.44c1.73,0,2.88,0,3.44,0
		c3.46,0,5.76,0,6.9,0c0,1.71,0,2.86,0,3.44C149.39,58.21,147.09,58.21,145.54,58.21z"/>
	<path class="st0" d="M160.88,59.94c0-0.39,0-0.97,0-1.73c-0.76,0-1.92,0-3.46,0c0,0.76,0,1.92,0,3.46c1.15,0,2.88,0,5.19,0
		c0.47,0,0.87,0.16,1.22,0.49c0.33,0.34,0.49,0.75,0.49,1.22c0,1.54,0,3.84,0,6.9c0,0.48-0.16,0.89-0.49,1.22
		c-0.34,0.34-0.75,0.51-1.22,0.51c-1.54,0-3.84,0-6.9,0c-0.48,0-0.89-0.17-1.22-0.51c-0.34-0.33-0.51-0.73-0.51-1.22
		c0-0.76,0-1.91,0-3.44c0.76,0,1.91,0,3.44,0c0,0.37,0,0.95,0,1.73c0.78,0,1.93,0,3.46,0c0-0.78,0-1.93,0-3.46
		c-1.15,0-2.88,0-5.17,0c-0.48,0-0.89-0.16-1.22-0.49c-0.34-0.34-0.51-0.76-0.51-1.24c0-0.76,0-1.72,0-2.88c0-1.15,0-2.49,0-4.02
		c0-0.47,0.17-0.87,0.51-1.22c0.33-0.33,0.73-0.49,1.22-0.49c1.53,0,3.83,0,6.9,0c0.47,0,0.87,0.16,1.22,0.49
		c0.33,0.34,0.49,0.75,0.49,1.22c0,0.78,0,1.93,0,3.46C163.56,59.94,162.41,59.94,160.88,59.94z"/>
</g>
</svg>
