<?xml version="1.0" encoding="utf-8"?>
<!-- Generator: Adobe Illustrator 23.0.1, SVG Export Plug-In . SVG Version: 6.00 Build 0)  -->
<svg version="1.1" id="Layer_1" xmlns="http://www.w3.org/2000/svg" xmlns:xlink="http://www.w3.org/1999/xlink" x="0px" y="0px"
	 viewBox="0 0 192 108" style="enable-background:new 0 0 192 108;" xml:space="preserve">
<style type="text/css">
	.st0{fill:#FFFFFF;}
	.st1{opacity:0.35;}
</style>
<g>
	<g>
		<rect x="13.5" y="20.5" class="st0" width="167.69" height="67.5"/>
		<path d="M183.69,90.5H11V18h172.69V90.5z M16,85.5h162.69V23H16V85.5z"/>
	</g>
	<g>
		<path d="M33.84,35.42c0,1.55,0,3.85,0,6.91c0,0.48-0.16,0.9-0.49,1.24c-0.34,0.33-0.75,0.49-1.22,0.49c-1.16,0-2.89,0-5.2,0
			c0,1.53,0,3.84,0,6.91c-0.77,0-1.91,0-3.45,0c0-0.77,0-1.73,0-2.88c0-1.14,0-2.48,0-4.03c0-0.77,0-1.91,0-3.45
			c0-0.78,0-1.94,0-3.47c0-0.77,0-1.91,0-3.45c0.77,0,1.91,0,3.45,0c1.16,0,2.89,0,5.2,0c0.47,0,0.88,0.16,1.22,0.49
			C33.68,34.54,33.84,34.95,33.84,35.42z M26.93,40.62c0.78,0,1.94,0,3.47,0c0-0.14,0-0.34,0-0.61c0-0.64,0-1.59,0-2.86
			c-0.77,0-1.92,0-3.47,0C26.93,37.92,26.93,39.07,26.93,40.62z"/>
		<path d="M46.23,47.54c0,1.72,0,2.87,0,3.45c-3.45,0-5.76,0-6.91,0c-1.28,0-2.14,0-2.58,0s-0.73,0-0.87,0c0-4.33,0-7.93,0-10.8
			s0-5.03,0-6.47c1.73,0,2.88,0,3.45,0c0,6.91,0,11.52,0,13.83C42.39,47.54,44.7,47.54,46.23,47.54z"/>
		<path d="M58.62,50.98c-0.77,0-1.91,0-3.45,0c0-1.53,0-3.84,0-6.91c-0.77,0-1.92,0-3.47,0c0,1.53,0,3.84,0,6.91
			c-0.77,0-1.91,0-3.45,0c0-1.3,0-3.25,0-5.86c0-1.08,0-2.42,0-4.03c0-1.63,0-3.52,0-5.67c0-0.47,0.17-0.88,0.52-1.22
			c0.33-0.33,0.73-0.49,1.22-0.49c1.53,0,3.84,0,6.91,0c0.47,0,0.88,0.16,1.22,0.49c0.33,0.34,0.49,0.75,0.49,1.22
			C58.62,38.89,58.62,44.07,58.62,50.98z M55.17,40.62c0-0.14,0-0.34,0-0.61c0-0.64,0-1.59,0-2.86c-0.77,0-1.92,0-3.47,0
			c0,0.77,0,1.92,0,3.47C52.49,40.62,53.64,40.62,55.17,40.62z"/>
		<path d="M73.12,33.71c-2.11,4.22-3.69,7.38-4.73,9.49c0,3.89,0,6.48,0,7.78c-1.73,0-2.89,0-3.47,0c0-3.89,0-6.48,0-7.78
			c-2.38-4.75-3.95-7.91-4.73-9.49c1.94,0,3.23,0,3.87,0c1.3,2.8,2.16,4.66,2.6,5.6c1.3-2.8,2.16-4.66,2.6-5.6
			C70.97,33.71,72.26,33.71,73.12,33.71z"/>
		<path d="M78.1,37.15c0,1.53,0,2.69,0,3.47c2.31,0,4.05,0,5.2,0c0,1.53,0,2.68,0,3.45c-2.31,0-4.05,0-5.2,0c0,1.53,0,2.69,0,3.47
			c3.08,0,5.38,0,6.91,0c0,1.53,0,2.68,0,3.45c-3.06,0-5.37,0-6.91,0c-1.53,0-2.68,0-3.45,0c0-0.77,0-1.44,0-2.02s0-1.05,0-1.43
			c0-1.73,0-2.89,0-3.47c0-1.73,0-2.88,0-3.45c0-1.73,0-2.89,0-3.47c0-1.72,0-2.87,0-3.45c1.73,0,2.88,0,3.45,0
			c3.47,0,5.77,0,6.91,0c0,1.72,0,2.87,0,3.45C81.95,37.15,79.65,37.15,78.1,37.15z"/>
		<path d="M95.69,42.33c0.47,0,0.88,0.17,1.22,0.52c0.33,0.33,0.49,0.73,0.49,1.22c0,1.53,0,3.84,0,6.91c-0.77,0-1.91,0-3.45,0
			c0-1.53,0-3.84,0-6.91c-0.77,0-1.92,0-3.47,0c0,1.53,0,3.84,0,6.91c-0.77,0-1.91,0-3.45,0c0-1.53,0-3.84,0-6.91
			c0-0.77,0-1.91,0-3.45c0-0.77,0-1.73,0-2.88s0-2.5,0-4.03c0.77,0,1.91,0,3.45,0c1.16,0,2.89,0,5.2,0c0.47,0,0.88,0.16,1.22,0.49
			c0.33,0.34,0.49,0.75,0.49,1.22c0,1.16,0,2.89,0,5.2c0,0.47-0.16,0.88-0.49,1.22C96.56,42.17,96.16,42.33,95.69,42.33z
			 M93.96,40.62c0-0.14,0-0.34,0-0.61c0-0.64,0-1.59,0-2.86c-0.77,0-1.92,0-3.47,0c0,0.77,0,1.92,0,3.47
			C91.27,40.62,92.42,40.62,93.96,40.62z"/>
		<path d="M122.18,37.15c-1.72,0-2.87,0-3.45,0c0,6.92,0,11.53,0,13.83c-1.73,0-2.89,0-3.47,0c0-6.91,0-11.52,0-13.83
			c-1.72,0-2.87,0-3.45,0c0-0.86,0-1.58,0-2.16s0-1.01,0-1.29c5.19,0,8.64,0,10.36,0C122.18,35.24,122.18,36.39,122.18,37.15z"/>
		<path d="M124.21,49.25c0-1.72,0-3.88,0-6.47s0-5.62,0-9.07c0.77,0,1.91,0,3.45,0c0,3.06,0,7.67,0,13.83c0.78,0,1.94,0,3.47,0
			c0-3.08,0-7.69,0-13.83c0.77,0,1.91,0,3.45,0c0,3.06,0,7.67,0,13.83c0.78,0,1.94,0,3.47,0c0-3.08,0-7.69,0-13.83
			c0.77,0,1.91,0,3.45,0c0,3.45,0,8.63,0,15.54c0,0.48-0.16,0.89-0.49,1.22c-0.34,0.34-0.75,0.52-1.22,0.52c-1.16,0-2.89,0-5.2,0
			c-0.47,0-0.88-0.17-1.22-0.52c-0.33-0.33-0.49-0.73-0.49-1.22c0,0.48-0.17,0.89-0.52,1.22c-0.33,0.34-0.73,0.52-1.22,0.52
			c-1.16,0-2.88,0-5.18,0c-0.48,0-0.89-0.17-1.22-0.52C124.38,50.14,124.21,49.73,124.21,49.25z"/>
		<path d="M153.87,35.42c0,3.08,0,7.69,0,13.83c0,0.48-0.16,0.89-0.49,1.22c-0.34,0.34-0.75,0.52-1.22,0.52c-1.55,0-3.85,0-6.91,0
			c-0.48,0-0.89-0.17-1.22-0.52c-0.34-0.33-0.52-0.73-0.52-1.22c0-1.16,0-2.89,0-5.2c0-0.95,0-2.14,0-3.56c0-1.45,0-3.14,0-5.06
			c0-0.47,0.17-0.88,0.52-1.22c0.33-0.33,0.73-0.49,1.22-0.49c1.53,0,3.84,0,6.91,0c0.47,0,0.88,0.16,1.22,0.49
			C153.7,34.54,153.87,34.95,153.87,35.42z M146.95,47.54c0.78,0,1.94,0,3.47,0c0-0.16,0-0.38,0-0.68c0-2.16,0-5.39,0-9.7
			c-0.77,0-1.92,0-3.47,0c0,1.16,0,2.88,0,5.18C146.95,43.49,146.95,45.22,146.95,47.54z"/>
		<path d="M159.34,33.71c0,0.77,0,1.34,0,1.71c0,0.78,0,1.36,0,1.73c-1.72,1.73-2.87,2.89-3.45,3.47c0-1.08,0-1.8,0-2.18
			c0.75-0.64,1.24-1.07,1.48-1.29c-0.73,0-1.23,0-1.48,0c0-0.86,0-1.58,0-2.16s0-1.01,0-1.29
			C157.43,33.71,158.58,33.71,159.34,33.71z"/>
		<path d="M168.28,38.89c0-0.39,0-0.97,0-1.73c-0.77,0-1.92,0-3.47,0c0,0.77,0,1.92,0,3.47c1.16,0,2.89,0,5.2,0
			c0.47,0,0.88,0.16,1.22,0.49c0.33,0.34,0.49,0.75,0.49,1.22c0,1.55,0,3.85,0,6.91c0,0.48-0.16,0.89-0.49,1.22
			c-0.34,0.34-0.75,0.52-1.22,0.52c-1.55,0-3.85,0-6.91,0c-0.48,0-0.89-0.17-1.22-0.52c-0.34-0.33-0.52-0.73-0.52-1.22
			c0-0.77,0-1.91,0-3.45c0.77,0,1.91,0,3.45,0c0,0.38,0,0.95,0,1.73c0.78,0,1.94,0,3.47,0c0-0.78,0-1.94,0-3.47
			c-1.16,0-2.88,0-5.18,0c-0.48,0-0.89-0.16-1.22-0.49c-0.34-0.34-0.52-0.76-0.52-1.24c0-0.77,0-1.73,0-2.88s0-2.5,0-4.03
			c0-0.47,0.17-0.88,0.52-1.22c0.33-0.33,0.73-0.49,1.22-0.49c1.53,0,3.84,0,6.91,0c0.47,0,0.88,0.16,1.22,0.49
			c0.33,0.34,0.49,0.75,0.49,1.22c0,0.78,0,1.94,0,3.47C170.96,38.89,169.82,38.89,168.28,38.89z"/>
		<path d="M84.2,60.93c-1.72,0-2.87,0-3.45,0c0,6.92,0,11.53,0,13.83c-1.73,0-2.89,0-3.47,0c0-6.91,0-11.52,0-13.83
			c-1.72,0-2.87,0-3.45,0c0-0.86,0-1.58,0-2.16s0-1.01,0-1.29c5.19,0,8.64,0,10.36,0C84.2,59.01,84.2,60.16,84.2,60.93z"/>
		<path d="M96.59,57.48c0,3.45,0,8.63,0,15.54c0,0.48-0.16,0.89-0.49,1.22c-0.34,0.34-0.75,0.52-1.22,0.52c-1.55,0-3.85,0-6.91,0
			c-0.48,0-0.89-0.17-1.22-0.52c-0.34-0.33-0.52-0.73-0.52-1.22c0-1.72,0-3.88,0-6.47s0-5.62,0-9.07c0.77,0,1.91,0,3.45,0
			c0,3.06,0,7.67,0,13.83c0.78,0,1.94,0,3.47,0c0-3.08,0-7.69,0-13.83C93.91,57.48,95.06,57.48,96.59,57.48z"/>
		<path d="M107.27,66.11c0.47,0,0.88,0.17,1.22,0.52c0.33,0.33,0.49,0.73,0.49,1.22c0,1.53,0,3.84,0,6.91c-0.77,0-1.91,0-3.45,0
			c0-1.53,0-3.84,0-6.91c-0.77,0-1.92,0-3.47,0c0,1.53,0,3.84,0,6.91c-0.77,0-1.91,0-3.45,0c0-1.53,0-3.84,0-6.91
			c0-0.77,0-1.91,0-3.45c0-0.77,0-1.73,0-2.88s0-2.5,0-4.03c0.77,0,1.91,0,3.45,0c1.16,0,2.89,0,5.2,0c0.47,0,0.88,0.16,1.22,0.49
			c0.33,0.34,0.49,0.75,0.49,1.22c0,1.16,0,2.89,0,5.2c0,0.47-0.16,0.88-0.49,1.22C108.14,65.94,107.74,66.11,107.27,66.11z
			 M105.54,64.39c0-0.14,0-0.34,0-0.61c0-0.64,0-1.59,0-2.86c-0.77,0-1.92,0-3.47,0c0,0.77,0,1.92,0,3.47
			C102.85,64.39,104,64.39,105.54,64.39z"/>
		<path d="M121.37,59.19c0,3.47,0,8.66,0,15.56c-0.77,0-1.91,0-3.45,0c0-3.08,0-7.69,0-13.83c-0.77,0-1.92,0-3.47,0
			c0,3.08,0,7.69,0,13.83c-0.77,0-1.91,0-3.45,0c0-1.92,0-4.32,0-7.2s0-6.23,0-10.08c0.77,0,1.91,0,3.45,0c1.16,0,2.89,0,5.2,0
			c0.47,0,0.88,0.16,1.22,0.49C121.2,58.32,121.37,58.72,121.37,59.19z"/>
	</g>
	<g class="st1">
		<rect x="15.62" y="80.95" width="163.87" height="5.19"/>
	</g>
</g>
</svg>
