<?xml version="1.0" encoding="utf-8"?>
<!-- Generator: Adobe Illustrator 23.0.1, SVG Export Plug-In . SVG Version: 6.00 Build 0)  -->
<svg version="1.1" id="Layer_1" xmlns="http://www.w3.org/2000/svg" xmlns:xlink="http://www.w3.org/1999/xlink" x="0px" y="0px"
	 viewBox="0 0 192 108" style="enable-background:new 0 0 192 108;" xml:space="preserve">
<style type="text/css">
	.st0{fill:#FFFFFF;}
	.st1{opacity:0.35;}
	.st2{fill:#1BAFDE;}
	.st3{opacity:0.1;}
</style>
<g>
	<g>
		<rect x="32.99" y="17.34" class="st0" width="126.52" height="82.29"/>
		<path d="M160.88,101H31.62V15.97h129.26V101z M34.36,98.26h123.78V18.71H34.36V98.26z"/>
	</g>
	<g class="st1">
		<rect x="33.19" y="94.33" width="125.04" height="3.92"/>
	</g>
	<g>
		<rect x="71.09" y="7.11" class="st2" width="49.8" height="22.72"/>
		<path d="M122.06,31.01H69.92V5.94h52.14V31.01z M72.27,28.66h47.45V8.29H72.27V28.66z"/>
	</g>
	<g class="st3">
		<rect x="71.99" y="26.71" width="48" height="1.75"/>
	</g>
	<g class="st3">
		<rect x="71.81" y="8.49" class="st0" width="48.18" height="1.75"/>
	</g>
	<g>
		<path class="st0" d="M86.84,22.94c0.13,0.22,0.33,0.54,0.59,0.98c-0.48,0-1.19,0-2.15,0c-0.12-0.21-0.3-0.52-0.55-0.93
			c-0.42,0-1.04,0-1.88,0c-0.26,0-0.48-0.09-0.65-0.28c-0.18-0.18-0.28-0.39-0.28-0.65c0-0.62,0-1.54,0-2.78c0-0.51,0-1.14,0-1.9
			c0-0.78,0-1.68,0-2.71c0-0.25,0.09-0.47,0.28-0.65c0.18-0.18,0.39-0.26,0.65-0.26c0.82,0,2.05,0,3.69,0
			c0.25,0,0.47,0.09,0.65,0.26c0.17,0.18,0.26,0.4,0.26,0.65c0,1.65,0,4.11,0,7.39c0,0.2-0.05,0.38-0.16,0.54
			C87.17,22.76,87.02,22.87,86.84,22.94z M83.75,21.15c0.42,0,1.04,0,1.85,0c0-0.08,0-0.2,0-0.36c0-1.15,0-2.88,0-5.19
			c-0.41,0-1.03,0-1.85,0c0,0.62,0,1.54,0,2.77C83.75,18.98,83.75,19.91,83.75,21.15z"/>
		<path class="st0" d="M94.07,13.76c0,1.85,0,4.61,0,8.3c0,0.26-0.09,0.48-0.26,0.65c-0.18,0.18-0.4,0.28-0.65,0.28
			c-0.83,0-2.06,0-3.69,0c-0.26,0-0.48-0.09-0.65-0.28c-0.18-0.18-0.28-0.39-0.28-0.65c0-0.92,0-2.07,0-3.46c0-1.39,0-3,0-4.85
			c0.41,0,1.02,0,1.84,0c0,1.64,0,4.1,0,7.39c0.42,0,1.04,0,1.85,0c0-1.64,0-4.11,0-7.39C92.64,13.76,93.25,13.76,94.07,13.76z"/>
		<path class="st0" d="M95.15,13.76c0.31,0,0.92,0,1.84,0c0,1.15,0,3.46,0,6.93c0,0.38,0,1.15,0,2.3c-0.3,0-0.91,0-1.84,0
			c0-1.03,0-2.31,0-3.85C95.15,17.61,95.15,15.81,95.15,13.76z"/>
		<path class="st0" d="M103.62,15.6c-0.82,0-1.43,0-1.84,0c0,3.7,0,6.16,0,7.39c-0.93,0-1.54,0-1.85,0c0-3.69,0-6.15,0-7.39
			c-0.92,0-1.53,0-1.84,0c0-0.46,0-0.84,0-1.15c0-0.31,0-0.54,0-0.69c2.77,0,4.62,0,5.54,0C103.62,14.57,103.62,15.19,103.62,15.6z"
			/>
		<path class="st0" d="M110.24,14.67c0,0.62,0,1.54,0,2.78c0,0.13-0.02,0.24-0.06,0.35c-0.05,0.12-0.12,0.22-0.2,0.3
			c-0.35,0.35-0.88,0.88-1.58,1.58c0,0.12,0,0.3,0,0.54c-0.41,0-1.03,0-1.85,0c0-0.21,0-0.52,0-0.93c0-0.13,0.02-0.25,0.08-0.36
			c0.05-0.11,0.12-0.2,0.2-0.29c0.35-0.35,0.88-0.88,1.58-1.58c0-0.33,0-0.81,0-1.47c-0.41,0-1.03,0-1.85,0c0,0.21,0,0.52,0,0.93
			c-0.41,0-1.02,0-1.84,0c0-0.2,0-0.46,0-0.76s0-0.67,0-1.09c0-0.25,0.09-0.47,0.28-0.65c0.17-0.18,0.39-0.26,0.65-0.26
			c0.82,0,2.05,0,3.7,0c0.25,0,0.47,0.09,0.65,0.26C110.15,14.2,110.24,14.42,110.24,14.67z M106.54,21.15c0.42,0,1.04,0,1.85,0
			c0,0.31,0,0.77,0,1.39c0,0.1,0,0.25,0,0.45c-0.41,0-1.03,0-1.85,0C106.54,22.58,106.54,21.96,106.54,21.15z"/>
	</g>
	<g>
		<path d="M47.76,45.44c0,0.97,0,1.7,0,2.19c1.46,0,2.56,0,3.29,0c0,0.97,0,1.69,0,2.18c-1.46,0-2.56,0-3.29,0c0,0.97,0,1.7,0,2.19
			c1.95,0,3.4,0,4.37,0c0,0.97,0,1.69,0,2.18c-1.94,0-3.39,0-4.37,0c-0.97,0-1.69,0-2.18,0c0-0.48,0-0.91,0-1.27
			c0-0.37,0-0.67,0-0.9c0-1.1,0-1.83,0-2.19c0-1.1,0-1.82,0-2.18c0-1.1,0-1.83,0-2.19c0-1.09,0-1.81,0-2.18c1.1,0,1.82,0,2.18,0
			c2.19,0,3.65,0,4.37,0c0,1.09,0,1.81,0,2.18C50.19,45.44,48.74,45.44,47.76,45.44z"/>
		<path d="M59.66,44.34c0,2.19,0,5.47,0,9.84c-0.48,0-1.21,0-2.18,0c0-1.95,0-4.86,0-8.74c-0.48,0-1.21,0-2.19,0
			c0,1.95,0,4.86,0,8.74c-0.48,0-1.21,0-2.18,0c0-1.22,0-2.73,0-4.55c0-1.82,0-3.94,0-6.37c0.48,0,1.21,0,2.18,0
			c0.73,0,1.83,0,3.29,0c0.3,0,0.55,0.1,0.77,0.31C59.56,43.79,59.66,44.04,59.66,44.34z"/>
		<path d="M67.19,44.34c0,1.95,0,4.86,0,8.74c0,0.31-0.1,0.56-0.31,0.77c-0.22,0.22-0.47,0.33-0.77,0.33c-0.73,0-1.83,0-3.29,0
			c-0.24,0-0.6,0-1.08,0c-0.25,0-0.61,0-1.1,0c0-1.22,0-2.73,0-4.55c0-1.82,0-3.94,0-6.37c0.42,0,1.06,0,1.91,0
			c0.06,0,0.15,0,0.27,0c0.73,0,1.83,0,3.29,0c0.3,0,0.55,0.1,0.77,0.31C67.08,43.79,67.19,44.04,67.19,44.34z M62.82,52
			c0.49,0,1.22,0,2.19,0c0-0.1,0-0.24,0-0.43c0-1.36,0-3.41,0-6.13c-0.48,0-1.21,0-2.19,0c0,0.73,0,1.82,0,3.27
			C62.82,49.44,62.82,50.54,62.82,52z"/>
		<path d="M82.01,45.44c-0.97,0-1.69,0-2.18,0c0,4.38,0,7.29,0,8.74c-1.1,0-1.83,0-2.19,0c0-4.37,0-7.28,0-8.74
			c-1.09,0-1.81,0-2.18,0c0-0.54,0-1,0-1.36c0-0.37,0-0.64,0-0.82c3.28,0,5.46,0,6.55,0C82.01,44.23,82.01,44.95,82.01,45.44z"/>
		<path d="M89.54,43.26c0,1.94,0,3.39,0,4.37c0,0.97,0,1.69,0,2.18c0,1.95,0,3.4,0,4.37c-0.97,0-1.69,0-2.18,0c0-1.95,0-3.4,0-4.37
			c-0.97,0-1.7,0-2.19,0c0,1.95,0,3.4,0,4.37c-0.97,0-1.69,0-2.18,0c0-0.97,0-1.82,0-2.55c0-0.73,0-1.34,0-1.82c0-1.1,0-1.82,0-2.18
			c0-2.19,0-3.65,0-4.37c1.1,0,1.82,0,2.18,0c0,2.18,0,3.64,0,4.37c1.1,0,1.83,0,2.19,0c0-2.19,0-3.65,0-4.37
			C88.33,43.26,89.05,43.26,89.54,43.26z"/>
		<path d="M92.7,45.44c0,0.97,0,1.7,0,2.19c1.46,0,2.56,0,3.29,0c0,0.97,0,1.69,0,2.18c-1.46,0-2.56,0-3.29,0c0,0.97,0,1.7,0,2.19
			c1.95,0,3.4,0,4.37,0c0,0.97,0,1.69,0,2.18c-1.94,0-3.39,0-4.37,0c-0.97,0-1.69,0-2.18,0c0-0.97,0-1.69,0-2.18
			c0-0.49,0-0.92,0-1.29s0-0.67,0-0.9c0-1.1,0-1.82,0-2.18c0-1.1,0-1.83,0-2.19c0-1.09,0-1.81,0-2.18c1.1,0,1.82,0,2.18,0
			c2.19,0,3.65,0,4.37,0c0,1.09,0,1.81,0,2.18C95.13,45.44,93.67,45.44,92.7,45.44z"/>
		<path d="M109.95,46.53c0-0.25,0-0.61,0-1.1c-0.48,0-1.22,0-2.19,0c0,1.46,0,3.65,0,6.56c0.49,0,1.22,0,2.19,0
			c0-0.49,0-1.22,0-2.19c-0.25,0-0.61,0-1.1,0c0-0.48,0-1.21,0-2.18c0.73,0,1.82,0,3.28,0c0,0.48,0,1.21,0,2.18
			c0,0.73,0,1.82,0,3.28c0,0.31-0.1,0.56-0.31,0.77c-0.22,0.22-0.47,0.33-0.77,0.33c-0.98,0-2.44,0-4.37,0
			c-0.31,0-0.56-0.11-0.77-0.33c-0.22-0.21-0.33-0.46-0.33-0.77c0-0.73,0-1.83,0-3.29c0-0.6,0-1.35,0-2.25c0-0.92,0-1.99,0-3.2
			c0-0.3,0.11-0.55,0.33-0.77c0.21-0.21,0.46-0.31,0.77-0.31c0.97,0,2.43,0,4.37,0c0.3,0,0.55,0.1,0.77,0.31
			c0.21,0.22,0.31,0.47,0.31,0.77c0,0.49,0,1.23,0,2.19C111.64,46.53,110.92,46.53,109.95,46.53z"/>
		<path d="M119.66,54.18c-0.48,0-1.21,0-2.18,0c0-0.97,0-2.43,0-4.37c-0.48,0-1.21,0-2.19,0c0,0.97,0,2.43,0,4.37
			c-0.48,0-1.21,0-2.18,0c0-0.82,0-2.05,0-3.7c0-0.68,0-1.53,0-2.55c0-1.03,0-2.22,0-3.59c0-0.3,0.11-0.55,0.33-0.77
			c0.21-0.21,0.46-0.31,0.77-0.31c0.97,0,2.43,0,4.37,0c0.3,0,0.55,0.1,0.77,0.31c0.21,0.22,0.31,0.47,0.31,0.77
			C119.66,46.53,119.66,49.81,119.66,54.18z M117.48,47.63c0-0.09,0-0.22,0-0.39c0-0.41,0-1.01,0-1.81c-0.48,0-1.21,0-2.19,0
			c0,0.48,0,1.22,0,2.19C115.78,47.63,116.51,47.63,117.48,47.63z"/>
		<path d="M131.56,44.34c0,2.19,0,5.47,0,9.84c-0.48,0-1.21,0-2.18,0c0-1.95,0-4.86,0-8.74c-0.48,0-1.21,0-2.19,0
			c0,1.95,0,4.86,0,8.74c-0.48,0-1.21,0-2.18,0c0-1.95,0-4.86,0-8.74c-0.48,0-1.21,0-2.19,0c0,1.95,0,4.86,0,8.74
			c-0.48,0-1.21,0-2.18,0c0-0.82,0-2.05,0-3.7c0-0.68,0-1.53,0-2.55c0-1.03,0-2.22,0-3.59c0-0.3,0.11-0.55,0.33-0.77
			c0.21-0.21,0.46-0.31,0.77-0.31c0.72,0,1.81,0,3.27,0c0.31,0,0.56,0.1,0.77,0.31c0.22,0.22,0.33,0.47,0.33,0.77
			c0-0.3,0.1-0.55,0.31-0.77c0.22-0.21,0.47-0.31,0.77-0.31c0.73,0,1.83,0,3.29,0c0.3,0,0.55,0.1,0.77,0.31
			C131.45,43.79,131.56,44.04,131.56,44.34z"/>
		<path d="M134.71,45.44c0,0.97,0,1.7,0,2.19c1.46,0,2.56,0,3.29,0c0,0.97,0,1.69,0,2.18c-1.46,0-2.56,0-3.29,0c0,0.97,0,1.7,0,2.19
			c1.95,0,3.4,0,4.37,0c0,0.97,0,1.69,0,2.18c-1.94,0-3.39,0-4.37,0c-0.97,0-1.69,0-2.18,0c0-0.97,0-1.69,0-2.18
			c0-0.49,0-0.92,0-1.29s0-0.67,0-0.9c0-1.1,0-1.82,0-2.18c0-1.1,0-1.83,0-2.19c0-1.09,0-1.81,0-2.18c1.1,0,1.82,0,2.18,0
			c2.19,0,3.65,0,4.37,0c0,1.09,0,1.81,0,2.18C137.15,45.44,135.69,45.44,134.71,45.44z"/>
		<path d="M146.61,44.34c0,0.73,0,1.83,0,3.29c0,0.15-0.02,0.29-0.07,0.41c-0.06,0.14-0.14,0.26-0.24,0.36
			c-0.41,0.41-1.04,1.04-1.87,1.87c0,0.14,0,0.35,0,0.64c-0.48,0-1.22,0-2.19,0c0-0.25,0-0.61,0-1.1c0-0.15,0.03-0.29,0.09-0.43
			c0.06-0.13,0.14-0.24,0.24-0.34c0.42-0.41,1.04-1.04,1.87-1.87c0-0.39,0-0.96,0-1.73c-0.48,0-1.22,0-2.19,0c0,0.25,0,0.61,0,1.1
			c-0.48,0-1.21,0-2.18,0c0-0.24,0-0.54,0-0.9s0-0.8,0-1.29c0-0.3,0.11-0.55,0.33-0.77c0.21-0.21,0.46-0.31,0.77-0.31
			c0.97,0,2.43,0,4.37,0c0.3,0,0.55,0.1,0.77,0.31C146.51,43.79,146.61,44.04,146.61,44.34z M142.24,52c0.49,0,1.22,0,2.19,0
			c0,0.37,0,0.91,0,1.64c0,0.12,0,0.3,0,0.53c-0.48,0-1.22,0-2.19,0C142.24,53.7,142.24,52.97,142.24,52z"/>
	</g>
</g>
</svg>
