<?xml version="1.0" encoding="utf-8"?>
<!-- Generator: Adobe Illustrator 23.0.1, SVG Export Plug-In . SVG Version: 6.00 Build 0)  -->
<svg version="1.1" id="Layer_1" xmlns="http://www.w3.org/2000/svg" xmlns:xlink="http://www.w3.org/1999/xlink" x="0px" y="0px"
	 viewBox="0 0 192 108" style="enable-background:new 0 0 192 108;" xml:space="preserve">
<style type="text/css">
	.st0{fill:#808080;}
	.st1{opacity:0.35;}
	.st2{fill:#FFFFFF;}
</style>
<g>
	<g>
		<rect x="57.63" y="15.5" class="st0" width="78.37" height="77.15"/>
		<path d="M138.5,95.15H55.13V13h83.37V95.15z M60.13,90.15h73.37V18H60.13V90.15z"/>
	</g>
	<g class="st1">
		<rect x="59.67" y="86.29" width="74.29" height="4.24"/>
	</g>
	<g class="st1">
		<rect x="60.75" y="18.62" class="st2" width="72.25" height="4.24"/>
	</g>
</g>
<g class="st1">
	<path d="M97,69c-9.92,0-18-8.08-18-18s8.08-18,18-18s18,8.08,18,18h-10c0-4.41-3.59-8-8-8s-8,3.59-8,8s3.59,8,8,8V69z"/>
</g>
<g>
	<path class="st2" d="M97,72c-9.92,0-18-8.08-18-18s8.08-18,18-18s18,8.08,18,18h-10c0-4.41-3.59-8-8-8s-8,3.59-8,8s3.59,8,8,8V72z"
		/>
</g>
<g>
	<polygon class="st2" points="98.69,53 110,64.31 121.31,53 	"/>
</g>
<g class="st1">
	
		<rect x="102.63" y="51.33" transform="matrix(0.7071 -0.7071 0.7071 0.7071 -11.501 90.6378)" class="st2" width="2.06" height="15.75"/>
</g>
<g class="st1">
	
		<rect x="115.17" y="51.34" transform="matrix(0.7071 0.7071 -0.7071 0.7071 75.8654 -64.8425)" class="st2" width="2.06" height="15.62"/>
</g>
<g class="st1">
	<path class="st2" d="M97,75c-9.92,0-18-8.08-18-18s8.08-18,18-18s18,8.08,18,18h-10c0-4.41-3.59-8-8-8s-8,3.59-8,8s3.59,8,8,8V75z"
		/>
</g>
</svg>
