<?xml version="1.0" encoding="utf-8"?>
<!-- Generator: Adobe Illustrator 23.0.1, SVG Export Plug-In . SVG Version: 6.00 Build 0)  -->
<svg version="1.1" id="Layer_1" xmlns="http://www.w3.org/2000/svg" xmlns:xlink="http://www.w3.org/1999/xlink" x="0px" y="0px"
	 viewBox="0 0 192 108" style="enable-background:new 0 0 192 108;" xml:space="preserve">
<style type="text/css">
	.st0{fill:#1BDE75;}
	.st1{opacity:0.35;}
	.st2{fill:#FFFFFF;}
	.st3{opacity:0.3;}
</style>
<g>
	<g>
		<rect x="9.51" y="15.67" class="st0" width="174.47" height="76.15"/>
		<path d="M186,93.84H7.5V13.66H186V93.84z M11.53,89.81h170.44V17.69H11.53V89.81z"/>
	</g>
	<g class="st1">
		<rect x="11.88" y="85.55" width="169.75" height="4.18"/>
	</g>
	<g class="st1">
		<rect x="11.24" y="17.76" class="st2" width="170.38" height="4.18"/>
	</g>
</g>
<g>
	<g class="st3">
		<polygon points="122.63,42.78 103,61.61 92.92,52.34 81.24,64.02 68.29,51.07 81.18,38.18 90.91,47.91 109.33,29.49 		"/>
	</g>
	<g>
		<polygon class="st2" points="71.97,54.76 81.64,45.09 90.91,54.35 109.04,37.03 118.71,46.7 90.91,73.7 		"/>
	</g>
	<g class="st3">
		
			<rect x="66.13" y="63.33" transform="matrix(0.7071 0.7071 -0.7071 0.7071 70.0637 -36.8524)" class="st2" width="26.78" height="5.64"/>
	</g>
	<g class="st3">
		
			<rect x="87.4" y="58.66" transform="matrix(0.7071 -0.7071 0.7071 0.7071 -12.2813 93.31)" class="st2" width="38.18" height="5.64"/>
	</g>
</g>
</svg>
