<?xml version="1.0" encoding="utf-8"?>
<!-- Generator: Adobe Illustrator 23.0.1, SVG Export Plug-In . SVG Version: 6.00 Build 0)  -->
<svg version="1.1" id="Layer_1" xmlns="http://www.w3.org/2000/svg" xmlns:xlink="http://www.w3.org/1999/xlink" x="0px" y="0px"
	 viewBox="0 0 192 108" style="enable-background:new 0 0 192 108;" xml:space="preserve">
<style type="text/css">
	.st0{fill:#FFFFFF;}
	.st1{opacity:0.35;}
	.st2{fill:#FFE000;}
	.st3{opacity:0.1;}
</style>
<g>
	<g>
		<rect x="28.67" y="15.3" class="st0" width="137.17" height="89.21"/>
		<path d="M167.32,106H27.18V13.82h140.13V106z M30.15,103.03h134.2V16.79H30.15V103.03z"/>
	</g>
	<g class="st1">
		<rect x="28.88" y="98.77" width="135.57" height="4.25"/>
	</g>
	<g>
		<rect x="53.97" y="4.21" class="st2" width="86" height="24.63"/>
		<path d="M141.24,30.12H52.7V2.94h88.54V30.12z M55.24,27.57h83.46V5.48H55.24V27.57z"/>
	</g>
	<g class="st3">
		<rect x="55.78" y="25.46" width="82.5" height="1.89"/>
	</g>
	<g class="st1">
		<rect x="55.47" y="5.71" class="st0" width="82.8" height="1.89"/>
	</g>
	<g>
		<path class="st0" d="M74.53,20.42c0-1,0-2.25,0-3.75c0-1.5,0-3.25,0-5.26c0.44,0,1.11,0,2,0c0,1.77,0,4.45,0,8.01
			c0.45,0,1.12,0,2.01,0c0-1.78,0-4.45,0-8.01c0.44,0,1.11,0,2,0c0,1.77,0,4.45,0,8.01c0.45,0,1.12,0,2.01,0c0-1.78,0-4.45,0-8.01
			c0.44,0,1.11,0,2,0c0,2,0,5,0,9c0,0.28-0.09,0.52-0.28,0.71c-0.2,0.2-0.43,0.3-0.71,0.3c-0.67,0-1.67,0-3.01,0
			c-0.27,0-0.51-0.1-0.71-0.3c-0.19-0.19-0.28-0.43-0.28-0.71c0,0.28-0.1,0.52-0.3,0.71c-0.19,0.2-0.43,0.3-0.71,0.3
			c-0.67,0-1.67,0-3,0c-0.28,0-0.52-0.1-0.71-0.3C74.63,20.93,74.53,20.7,74.53,20.42z"/>
		<path class="st0" d="M85.71,11.41c0.33,0,1,0,2,0c0,1.25,0,3.75,0,7.51c0,0.42,0,1.25,0,2.5c-0.33,0-0.99,0-2,0
			c0-0.83,0-2.08,0-3.75C85.71,16.01,85.71,13.92,85.71,11.41z"/>
		<path class="st0" d="M94.89,12.4c0,2.01,0,5.02,0,9.02c-0.44,0-1.11,0-2,0c0-1.78,0-4.45,0-8.01c-0.44,0-1.11,0-2.01,0
			c0,1.78,0,4.45,0,8.01c-0.44,0-1.11,0-2,0c0-1.11,0-2.5,0-4.17c0-1.67,0-3.61,0-5.84c0.44,0,1.11,0,2,0c0.67,0,1.67,0,3.01,0
			c0.27,0,0.51,0.1,0.71,0.29C94.79,11.9,94.89,12.13,94.89,12.4z"/>
		<path class="st0" d="M102.06,12.4c0,2.01,0,5.02,0,9.02c-0.44,0-1.11,0-2,0c0-1.78,0-4.45,0-8.01c-0.44,0-1.11,0-2.01,0
			c0,1.78,0,4.45,0,8.01c-0.44,0-1.11,0-2,0c0-1.11,0-2.5,0-4.17c0-1.67,0-3.61,0-5.84c0.44,0,1.11,0,2,0c0.67,0,1.67,0,3.01,0
			c0.27,0,0.51,0.1,0.71,0.29C101.97,11.9,102.06,12.13,102.06,12.4z"/>
		<path class="st0" d="M105.24,13.41c0,0.89,0,1.56,0,2.01c1.34,0,2.34,0,3.01,0c0,0.89,0,1.55,0,2c-1.34,0-2.34,0-3.01,0
			c0,0.89,0,1.56,0,2.01c1.78,0,3.12,0,4.01,0c0,0.89,0,1.55,0,2c-1.77,0-3.11,0-4.01,0c-0.89,0-1.55,0-2,0c0-0.44,0-0.83,0-1.17
			c0-0.33,0-0.61,0-0.83c0-1,0-1.67,0-2.01c0-1,0-1.67,0-2c0-1,0-1.67,0-2.01c0-1,0-1.66,0-2c1.01,0,1.67,0,2,0
			c2.01,0,3.34,0,4.01,0c0,1,0,1.66,0,2C107.47,13.41,106.13,13.41,105.24,13.41z"/>
		<path class="st0" d="M115.43,16.41c0.27,0,0.51,0.1,0.71,0.3c0.19,0.19,0.29,0.43,0.29,0.71c0,0.89,0,2.22,0,4.01
			c-0.44,0-1.11,0-2,0c0-0.89,0-2.22,0-4.01c-0.44,0-1.11,0-2.01,0c0,0.89,0,2.22,0,4.01c-0.44,0-1.11,0-2,0c0-0.89,0-2.22,0-4.01
			c0-0.44,0-1.11,0-2c0-0.44,0-1,0-1.67c0-0.67,0-1.45,0-2.34c0.44,0,1.11,0,2,0c0.67,0,1.67,0,3.01,0c0.27,0,0.51,0.1,0.71,0.29
			c0.19,0.2,0.29,0.43,0.29,0.71c0,0.67,0,1.67,0,3.01c0,0.27-0.1,0.51-0.29,0.71C115.94,16.32,115.7,16.41,115.43,16.41z
			 M114.42,15.42c0-0.08,0-0.2,0-0.35c0-0.37,0-0.92,0-1.66c-0.44,0-1.11,0-2.01,0c0,0.44,0,1.11,0,2.01
			C112.87,15.42,113.54,15.42,114.42,15.42z"/>
		<path class="st0" d="M117.6,11.41c0.33,0,1,0,2,0c0,1.17,0,3.5,0,7.01c-0.33,0-0.99,0-2,0c0-0.58,0-1.45,0-2.62
			S117.6,13.17,117.6,11.41z M117.6,19.43c0.33,0,1,0,2,0c0,0.33,0,0.99,0,2c-0.33,0-0.99,0-2,0c0-0.16,0-0.41,0-0.75
			C117.6,20.34,117.6,19.92,117.6,19.43z"/>
	</g>
</g>
</svg>
